<svg width="72" height="72" viewBox="0 0 72 72" fill="none" xmlns="http://www.w3.org/2000/svg">
<rect width="72" height="72" fill="white"/>
<path d="M17 61H55V27.5L36 12L17 27.5V61Z" fill="#E6EEEF"/>
<path fill-rule="evenodd" clip-rule="evenodd" d="M35.9999 10.7146L62.6283 32.2221L61.3716 33.778L55.9999 29.4393V62H15.9999V29.4393L10.6283 33.778L9.37158 32.2221L35.9999 10.7146ZM17.9999 27.8239V60H53.9999V27.824L35.9999 13.2855L17.9999 27.8239Z" fill="black"/>
<path d="M49 42C49 49.1797 43.1797 55 36 55C28.8203 55 23 49.1797 23 42C23 34.8203 28.8203 29 36 29C43.1797 29 49 34.8203 49 42Z" fill="white"/>
<path fill-rule="evenodd" clip-rule="evenodd" d="M36 30C29.3726 30 24 35.3726 24 42C24 48.6274 29.3726 54 36 54C42.6274 54 48 48.6274 48 42C48 35.3726 42.6274 30 36 30ZM22 42C22 34.268 28.268 28 36 28C43.732 28 50 34.268 50 42C50 49.732 43.732 56 36 56C28.268 56 22 49.732 22 42Z" fill="black"/>
<path fill-rule="evenodd" clip-rule="evenodd" d="M36 31H35V38.126C34.8424 38.1666 34.6886 38.2165 34.5391 38.2752C33.8985 37.7106 32.5866 37 30.8 37C28.6242 37 27.1349 37.768 26.2033 38.8462C25.303 39.8882 25 41.1315 25 42V43H32.126C32.1666 43.1576 32.2165 43.3114 32.2752 43.4609C31.7106 44.1015 31 45.4134 31 47.2C31 49.3758 31.768 50.8651 32.8462 51.7967C33.8882 52.697 35.1315 53 36 53H37V45.874C37.1576 45.8334 37.3114 45.7835 37.4609 45.7248C38.1015 46.2894 39.4134 47 41.2 47C43.3758 47 44.8651 46.232 45.7967 45.1538C46.697 44.1118 47 42.8685 47 42V41H39.874C39.8334 40.8424 39.7835 40.6886 39.7248 40.5391C40.2894 39.8985 41 38.5866 41 36.8C41 34.6242 40.232 33.1349 39.1538 32.2033C38.1118 31.303 36.8685 31 36 31ZM35 45.874V50.7934C34.716 50.6807 34.4227 50.5156 34.1538 50.2833C33.5653 49.7749 33 48.8642 33 47.2C33 46.2591 33.2806 45.558 33.5237 45.1415C33.9533 45.4806 34.4541 45.7335 35 45.874ZM36 44C37.1046 44 38 43.1046 38 42C38 40.8954 37.1046 40 36 40C34.8954 40 34 40.8954 34 42C34 43.1046 34.8954 44 36 44ZM30.8 39C31.7409 39 32.442 39.2806 32.8585 39.5237C32.5194 39.9533 32.2665 40.4541 32.126 41H27.2066C27.3193 40.716 27.4844 40.4227 27.7167 40.1538C28.2251 39.5653 29.1358 39 30.8 39ZM38.4763 38.8585C38.7194 38.442 39 37.7409 39 36.8C39 35.1358 38.4347 34.2251 37.8462 33.7167C37.5773 33.4844 37.284 33.3193 37 33.2066V38.126C37.5459 38.2665 38.0467 38.5194 38.4763 38.8585ZM39.1415 44.4763C39.4806 44.0467 39.7335 43.5459 39.874 43H44.7934C44.6807 43.284 44.5156 43.5773 44.2833 43.8462C43.7749 44.4347 42.8642 45 41.2 45C40.2591 45 39.558 44.7194 39.1415 44.4763Z" fill="black"/>
</svg>
