<svg width="72" height="72" viewBox="0 0 72 72" fill="none" xmlns="http://www.w3.org/2000/svg">
<rect width="72" height="72" fill="white"/>
<path d="M49 26H36V42L32 46L28 42V26H15V57H51C53 57 57 56.4 57 52C57 47.6 53 47 51 47H49V26Z" fill="#E6EEEF"/>
<path d="M36 41.9974L32 46L28 41.9974V18.0026C28 16.9411 28.4214 15.923 29.1716 15.1723C29.9217 14.4217 30.9391 14 32 14C33.0609 14 34.0783 14.4217 34.8284 15.1723C35.5786 15.923 36 16.9411 36 18.0026V41.9974Z" fill="white"/>
<path fill-rule="evenodd" clip-rule="evenodd" d="M32 15C31.2046 15 30.4416 15.3162 29.8789 15.8792C29.3162 16.4423 29 17.2061 29 18.0026V22H35V18.0026C35 17.2061 34.6838 16.4423 34.1211 15.8792C33.5584 15.3162 32.7954 15 32 15ZM35 24H29V25V41.5834L32 44.5853L35 41.5834V25V24ZM27 18.0026V25H14V58H51C52.067 58 53.7692 57.8454 55.2386 57.0225C56.7886 56.1545 58 54.5797 58 52V52V21C58 18.2741 56.8418 16.4739 55.3343 15.3885C53.8778 14.3398 52.16 14 51 14L48 14V25H37V18.0026C37 16.6761 36.4734 15.4037 35.5358 14.4655C34.5981 13.5272 33.3263 13 32 13C30.6737 13 29.4019 13.5272 28.4642 14.4655C27.5266 15.4037 27 16.6761 27 18.0026ZM16 27H27V42.4114V42.4142L31.2608 46.675L32 47.4147L32.7392 46.675L37 42.4142V42.4114V27H48V47V48H51C51.9331 48 53.2309 48.1454 54.2614 48.7225C55.2114 49.2545 56 50.1797 56 52V52C56 53.8202 55.2114 54.7454 54.2614 55.2775C53.2308 55.8546 51.933 56 51 56H16V27ZM51 16L50 16V25V46H51C52.0669 46 53.7691 46.1546 55.2386 46.9775C55.5038 47.126 55.759 47.2951 56 47.4865V21C56 18.9259 55.1582 17.7261 54.1657 17.0115C53.1222 16.2602 51.84 16 51 16Z" fill="black"/>
</svg>
