<svg width="20" height="20" viewBox="0 0 20 20" fill="none" xmlns="http://www.w3.org/2000/svg">
    <g clip-path="url(#clip0_1989_46337)">
        <path fill-rule="evenodd" clip-rule="evenodd"
            d="M10 2.25C5.71979 2.25 2.25 5.71979 2.25 10C2.25 14.2802 5.71979 17.75 10 17.75C14.2802 17.75 17.75 14.2802 17.75 10C17.75 5.71979 14.2802 2.25 10 2.25ZM0.25 10C0.25 4.61522 4.61522 0.25 10 0.25C15.3848 0.25 19.75 4.61522 19.75 10C19.75 15.3848 15.3848 19.75 10 19.75C4.61522 19.75 0.25 15.3848 0.25 10ZM9.99998 8.58422L13.2679 5.31633L14.6821 6.73054L11.4142 9.99844L14.6821 13.2663L13.2679 14.6805L9.99998 11.4127L6.73208 14.6805L5.31787 13.2663L8.58576 9.99844L5.31787 6.73054L6.73208 5.31633L9.99998 8.58422Z"
            fill="currentColor" />
    </g>
    <defs>
        <clipPath id="clip0_1989_46337">
            <rect width="20" height="20" fill="white" />
        </clipPath>
    </defs>
</svg>