<svg width="72" height="72" viewBox="0 0 72 72" fill="none" xmlns="http://www.w3.org/2000/svg">
<rect width="72" height="72" fill="white"/>
<path d="M24 32V45H14V32C14 30.3333 15 27 19 27C23 27 24 30.3333 24 32Z" fill="#E6EEEF"/>
<path d="M58 32V45H48V32C48 30.3333 49 27 53 27C57 27 58 30.3333 58 32Z" fill="#E6EEEF"/>
<path d="M19 24C21.7614 24 24 21.7614 24 19C24 16.2386 21.7614 14 19 14C16.2386 14 14 16.2386 14 19C14 21.7614 16.2386 24 19 24Z" fill="#E6EEEF"/>
<path fill-rule="evenodd" clip-rule="evenodd" d="M19 15C16.7909 15 15 16.7909 15 19C15 21.2091 16.7909 23 19 23C21.2091 23 23 21.2091 23 19C23 16.7909 21.2091 15 19 15ZM13 19C13 15.6863 15.6863 13 19 13C22.3137 13 25 15.6863 25 19C25 22.3137 22.3137 25 19 25C15.6863 25 13 22.3137 13 19Z" fill="black"/>
<path d="M53 24C55.7614 24 58 21.7614 58 19C58 16.2386 55.7614 14 53 14C50.2386 14 48 16.2386 48 19C48 21.7614 50.2386 24 53 24Z" fill="#E6EEEF"/>
<path fill-rule="evenodd" clip-rule="evenodd" d="M53 15C50.7909 15 49 16.7909 49 19C49 21.2091 50.7909 23 53 23C55.2091 23 57 21.2091 57 19C57 16.7909 55.2091 15 53 15ZM47 19C47 15.6863 49.6863 13 53 13C56.3137 13 59 15.6863 59 19C59 22.3137 56.3137 25 53 25C49.6863 25 47 22.3137 47 19Z" fill="black"/>
<path fill-rule="evenodd" clip-rule="evenodd" d="M14.7929 27.7929C15.8585 26.7273 17.4422 26 19 26C20.5578 26 22.1415 26.7273 23.2071 27.7929C24.2727 28.8585 25 30.4422 25 32V35H23V32C23 31.0224 22.5201 29.9343 21.7929 29.2071C21.0657 28.4799 19.9776 28 19 28C18.0224 28 16.9343 28.4799 16.2071 29.2071C15.4799 29.9343 15 31.0224 15 32V44H29V58H27V46H13V32C13 30.4422 13.7273 28.8585 14.7929 27.7929Z" fill="black"/>
<path fill-rule="evenodd" clip-rule="evenodd" d="M57.2071 27.7929C56.1415 26.7273 54.5578 26 53 26C51.4422 26 49.8585 26.7273 48.7929 27.7929C47.7273 28.8585 47 30.4422 47 32V35H49V32C49 31.0224 49.4799 29.9343 50.2071 29.2071C50.9343 28.4799 52.0224 28 53 28C53.9776 28 55.0657 28.4799 55.7929 29.2071C56.5201 29.9343 57 31.0224 57 32V44H43V58H45V46H59V32C59 30.4422 58.2727 28.8585 57.2071 27.7929Z" fill="black"/>
<path fill-rule="evenodd" clip-rule="evenodd" d="M49 40H23V38H49V40Z" fill="black"/>
<path fill-rule="evenodd" clip-rule="evenodd" d="M37 38.86V58H35V38.86H37Z" fill="black"/>
</svg>
