<svg width="72" height="72" viewBox="0 0 72 72" fill="none" xmlns="http://www.w3.org/2000/svg">
<path d="M20 45H52V20.5L36 7L20 20V45Z" fill="#E6EEEF"/>
<path fill-rule="evenodd" clip-rule="evenodd" d="M31.7756 20.173C31.9026 19.8908 32 19.5313 32 19H34C34 19.802 33.8474 20.4426 33.5994 20.9937C33.3661 21.5122 33.0593 21.9211 32.8187 22.2417C32.8124 22.2501 32.8062 22.2584 32.8 22.2667C32.5432 22.6091 32.36 22.8591 32.2244 23.1604C32.0974 23.4426 32 23.802 32 24.3333C32 24.8646 32.0974 25.2241 32.2244 25.5063C32.36 25.8075 32.5432 26.0576 32.8 26.4C32.8062 26.4083 32.8124 26.4166 32.8187 26.425C33.0593 26.7456 33.3661 27.1544 33.5994 27.673C33.8474 28.2241 34 28.8646 34 29.6667C34 30.4687 33.8474 31.1092 33.5994 31.6604C33.3661 32.1789 33.0593 32.5877 32.8187 32.9083L32.8 32.9333C32.5432 33.2757 32.36 33.5258 32.2244 33.827C32.0974 34.1092 32 34.4687 32 35H30C30 34.198 30.1526 33.5574 30.4006 33.0063C30.6339 32.4878 30.9407 32.0789 31.1813 31.7583L31.2 31.7333C31.4568 31.3909 31.64 31.1409 31.7756 30.8396C31.9026 30.5574 32 30.198 32 29.6667C32 29.1354 31.9026 28.7759 31.7756 28.4937C31.64 28.1925 31.4568 27.9424 31.2 27.6C31.1938 27.5917 31.1876 27.5834 31.1813 27.575C30.9407 27.2544 30.6339 26.8456 30.4006 26.327C30.1526 25.7759 30 25.1354 30 24.3333C30 23.5313 30.1526 22.8908 30.4006 22.3396C30.6339 21.8211 30.9407 21.4122 31.1813 21.0916C31.1876 21.0833 31.1938 21.0749 31.2 21.0667C31.4568 20.7243 31.64 20.4742 31.7756 20.173Z" fill="black"/>
<path fill-rule="evenodd" clip-rule="evenodd" d="M40.7756 24.173C40.9026 23.8908 41 23.5313 41 23H43C43 23.802 42.8474 24.4426 42.5994 24.9937C42.3661 25.5122 42.0593 25.9211 41.8187 26.2417C41.8124 26.2501 41.8062 26.2584 41.8 26.2667C41.5432 26.6091 41.36 26.8591 41.2244 27.1604C41.0974 27.4426 41 27.802 41 28.3333C41 28.8646 41.0974 29.2241 41.2244 29.5063C41.36 29.8075 41.5432 30.0576 41.8 30.4C41.8062 30.4083 41.8124 30.4166 41.8187 30.425C42.0593 30.7456 42.3661 31.1544 42.5994 31.673C42.8474 32.2241 43 32.8646 43 33.6667C43 34.4687 42.8474 35.1092 42.5994 35.6604C42.3661 36.1789 42.0593 36.5877 41.8187 36.9083L41.8 36.9333C41.5432 37.2757 41.36 37.5258 41.2244 37.827C41.0974 38.1092 41 38.4687 41 39H39C39 38.198 39.1526 37.5574 39.4006 37.0063C39.6339 36.4878 39.9407 36.0789 40.1813 35.7583L40.2 35.7333C40.4568 35.3909 40.64 35.1409 40.7756 34.8396C40.9026 34.5574 41 34.198 41 33.6667C41 33.1354 40.9026 32.7759 40.7756 32.4937C40.64 32.1925 40.4568 31.9424 40.2 31.6C40.1938 31.5917 40.1876 31.5834 40.1813 31.575C39.9407 31.2544 39.6339 30.8456 39.4006 30.327C39.1526 29.7759 39 29.1354 39 28.3333C39 27.5313 39.1526 26.8908 39.4006 26.3396C39.6339 25.8211 39.9407 25.4122 40.1813 25.0916C40.1876 25.0833 40.1938 25.0749 40.2 25.0667C40.4568 24.7243 40.64 24.4742 40.7756 24.173Z" fill="black"/>
<path fill-rule="evenodd" clip-rule="evenodd" d="M58.6332 24.226L35.9999 5.70789L13.3667 24.226L14.6332 25.7739L18.9999 22.2011V45.9999H41.0154V55H13V57H59V55H43.0154V45.9999H52.9999V22.2011L57.3667 25.7739L58.6332 24.226ZM20.9999 43.9999V20.5647L35.9999 8.29201L50.9999 20.5647V43.9999H20.9999Z" fill="black"/>
</svg>
