<svg width="72" height="72" viewBox="0 0 72 72" fill="none" xmlns="http://www.w3.org/2000/svg">
<path d="M20 45H52V20.5L36 7L20 20V45Z" fill="#E6EEEF"/>
<path fill-rule="evenodd" clip-rule="evenodd" d="M35.9999 5.70795L58.6332 24.226L57.3667 25.774L52.9999 22.2012V46H44V51H59V53H44V65H42V53H13V51H42V46H18.9999V22.2012L14.6332 25.774L13.3667 24.226L35.9999 5.70795ZM20.9999 20.5648V44H50.9999V20.5648L35.9999 8.29207L20.9999 20.5648Z" fill="black"/>
<path fill-rule="evenodd" clip-rule="evenodd" d="M48 57V55H50V57H48Z" fill="black"/>
<path fill-rule="evenodd" clip-rule="evenodd" d="M36 57V55H38V57H36Z" fill="black"/>
<path fill-rule="evenodd" clip-rule="evenodd" d="M29 57V55H31V57H29Z" fill="black"/>
<path fill-rule="evenodd" clip-rule="evenodd" d="M22 57V55H24V57H22Z" fill="black"/>
<path fill-rule="evenodd" clip-rule="evenodd" d="M15 57V55H17V57H15Z" fill="black"/>
<path fill-rule="evenodd" clip-rule="evenodd" d="M19 60V58H21V60H19Z" fill="black"/>
<path fill-rule="evenodd" clip-rule="evenodd" d="M26 60V58H28V60H26Z" fill="black"/>
<path fill-rule="evenodd" clip-rule="evenodd" d="M33 60V58H35V60H33Z" fill="black"/>
<path fill-rule="evenodd" clip-rule="evenodd" d="M52 60V58H54V60H52Z" fill="black"/>
<path fill-rule="evenodd" clip-rule="evenodd" d="M55 57V55H57V57H55Z" fill="black"/>
</svg>
