<svg width="72" height="72" viewBox="0 0 72 72" fill="none" xmlns="http://www.w3.org/2000/svg">
<rect width="72" height="72" fill="white"/>
<path d="M20 45H52V20.5L36 7L20 20V45Z" fill="#E6EEEF"/>
<path fill-rule="evenodd" clip-rule="evenodd" d="M35.9999 5.70795L58.6332 24.226L57.3667 25.774L52.9999 22.2012V46H18.9999V22.2012L14.6332 25.774L13.3667 24.226L35.9999 5.70795ZM21 20.5001L20.9999 21V44H50.9999V21L51 20.5001L35.9999 8.29207L21 20.5001Z" fill="black"/>
<path fill-rule="evenodd" clip-rule="evenodd" d="M21.0746 53.6086C20.5015 53.8509 19.8362 54 19 54V52C19.5829 52 19.982 51.8991 20.2958 51.7664C20.6266 51.6266 20.8993 51.4383 21.2622 51.1826C21.2704 51.1768 21.2786 51.1711 21.2868 51.1653C21.6294 50.9237 22.0588 50.621 22.6019 50.3914C23.175 50.1491 23.8403 50 24.6765 50C25.5127 50 26.1773 50.1491 26.7495 50.392C27.2915 50.6221 27.7189 50.9255 28.0591 51.167C28.0673 51.1729 28.0755 51.1787 28.0836 51.1845C28.4441 51.4402 28.7138 51.6277 29.042 51.767C29.3531 51.8991 29.7504 52 30.3333 52C30.9163 52 31.3153 51.8991 31.6286 51.7665C31.9587 51.6269 32.2307 51.4388 32.5918 51.1835L32.6194 51.164C32.9596 50.9233 33.3863 50.6215 33.9248 50.3923C34.4955 50.1495 35.1579 50 35.9901 50C37.713 50 38.635 50.6474 39.3899 51.1775L39.3957 51.1816C40.0608 51.6487 40.5636 52 41.6667 52C42.2496 52 42.6469 51.8991 42.958 51.767C43.2862 51.6277 43.5559 51.4402 43.9164 51.1845L43.9409 51.1671C44.2811 50.9255 44.7085 50.6221 45.2505 50.392C45.8227 50.1491 46.4873 50 47.3235 50C48.1597 50 48.825 50.1491 49.3981 50.3914C49.9412 50.621 50.3706 50.9237 50.7132 51.1653L50.7378 51.1826C51.1007 51.4383 51.3734 51.6266 51.7042 51.7664C52.018 51.8991 52.4171 52 53 52V54C52.1638 54 51.4985 53.8509 50.9254 53.6086C50.3823 53.379 49.9529 53.0763 49.6103 52.8347L49.5857 52.8174C49.2228 52.5617 48.9501 52.3734 48.6193 52.2336C48.3054 52.1009 47.9064 52 47.3235 52C46.7405 52 46.3433 52.1009 46.0321 52.233C45.704 52.3723 45.4342 52.5598 45.0738 52.8155L45.0492 52.8329C44.709 53.0745 44.2816 53.3779 43.7396 53.608C43.1675 53.8509 42.5028 54 41.6667 54C39.9315 54 39.0053 53.3513 38.2463 52.8184L38.2455 52.8178C37.5778 52.349 37.0809 52 35.9901 52C35.4131 52 35.0185 52.1005 34.7078 52.2327C34.3796 52.3723 34.109 52.5602 33.7465 52.8165L33.725 52.8317C33.3824 53.074 32.9526 53.378 32.4079 53.6085C31.8349 53.8509 31.1695 54 30.3333 54C29.4972 54 28.8325 53.8509 28.2604 53.608C27.7184 53.3779 27.291 53.0745 26.9508 52.833C26.9425 52.8271 26.9344 52.8213 26.9262 52.8155C26.5658 52.5598 26.296 52.3723 25.9679 52.233C25.6567 52.1009 25.2595 52 24.6765 52C24.0936 52 23.6946 52.1009 23.3807 52.2336C23.0499 52.3734 22.7772 52.5617 22.4143 52.8174C22.4061 52.8232 22.398 52.8289 22.3897 52.8347C22.0471 53.0763 21.6177 53.379 21.0746 53.6086Z" fill="black"/>
<path fill-rule="evenodd" clip-rule="evenodd" d="M21.0746 59.6086C20.5015 59.8509 19.8362 60 19 60V58C19.5829 58 19.982 57.8991 20.2958 57.7664C20.6266 57.6266 20.8993 57.4383 21.2622 57.1826C21.2704 57.1768 21.2786 57.1711 21.2868 57.1653C21.6294 56.9237 22.0588 56.621 22.6019 56.3914C23.175 56.1491 23.8403 56 24.6765 56C25.5127 56 26.1773 56.1491 26.7495 56.392C27.2915 56.6221 27.7189 56.9255 28.0591 57.167C28.0673 57.1729 28.0755 57.1787 28.0836 57.1845C28.4441 57.4402 28.7138 57.6277 29.042 57.767C29.3531 57.8991 29.7504 58 30.3333 58C30.9163 58 31.3153 57.8991 31.6286 57.7665C31.9587 57.6269 32.2307 57.4388 32.5918 57.1835L32.6194 57.164C32.9596 56.9233 33.3863 56.6215 33.9248 56.3923C34.4955 56.1495 35.1579 56 35.9901 56C37.713 56 38.635 56.6474 39.3899 57.1775L39.3957 57.1816C40.0608 57.6487 40.5636 58 41.6667 58C42.2496 58 42.6469 57.8991 42.958 57.767C43.2862 57.6277 43.5559 57.4402 43.9164 57.1845L43.9409 57.1671C44.2811 56.9255 44.7085 56.6221 45.2505 56.392C45.8227 56.1491 46.4873 56 47.3235 56C48.1597 56 48.825 56.1491 49.3981 56.3914C49.9412 56.621 50.3706 56.9237 50.7132 57.1653L50.7378 57.1826C51.1007 57.4383 51.3734 57.6266 51.7042 57.7664C52.018 57.8991 52.4171 58 53 58V60C52.1638 60 51.4985 59.8509 50.9254 59.6086C50.3823 59.379 49.9529 59.0763 49.6103 58.8347L49.5857 58.8174C49.2228 58.5617 48.9501 58.3734 48.6193 58.2336C48.3054 58.1009 47.9064 58 47.3235 58C46.7405 58 46.3433 58.1009 46.0321 58.233C45.704 58.3723 45.4342 58.5598 45.0738 58.8155L45.0492 58.8329C44.709 59.0745 44.2816 59.3779 43.7396 59.608C43.1675 59.8509 42.5028 60 41.6667 60C39.9315 60 39.0053 59.3513 38.2463 58.8184L38.2455 58.8178C37.5778 58.349 37.0809 58 35.9901 58C35.4131 58 35.0185 58.1005 34.7078 58.2327C34.3796 58.3723 34.109 58.5602 33.7465 58.8165L33.725 58.8317C33.3824 59.074 32.9526 59.378 32.4079 59.6085C31.8349 59.8509 31.1695 60 30.3333 60C29.4972 60 28.8325 59.8509 28.2604 59.608C27.7184 59.3779 27.291 59.0745 26.9508 58.833C26.9425 58.8271 26.9344 58.8213 26.9262 58.8155C26.5658 58.5598 26.296 58.3723 25.9679 58.233C25.6567 58.1009 25.2595 58 24.6765 58C24.0936 58 23.6946 58.1009 23.3807 58.2336C23.0499 58.3734 22.7772 58.5617 22.4143 58.8174C22.4061 58.8232 22.398 58.8289 22.3897 58.8347C22.0471 59.0763 21.6177 59.379 21.0746 59.6086Z" fill="black"/>
<path fill-rule="evenodd" clip-rule="evenodd" d="M21.0746 65.6086C20.5015 65.8509 19.8362 66 19 66V64C19.5829 64 19.982 63.8991 20.2958 63.7664C20.6266 63.6266 20.8993 63.4383 21.2622 63.1826C21.2704 63.1768 21.2786 63.1711 21.2868 63.1653C21.6294 62.9237 22.0588 62.621 22.6019 62.3914C23.175 62.1491 23.8403 62 24.6765 62C25.5127 62 26.1773 62.1491 26.7495 62.392C27.2915 62.6221 27.7189 62.9255 28.0591 63.167C28.0673 63.1729 28.0755 63.1787 28.0836 63.1845C28.4441 63.4402 28.7138 63.6277 29.042 63.767C29.3531 63.8991 29.7504 64 30.3333 64C30.9163 64 31.3153 63.8991 31.6286 63.7665C31.9587 63.6269 32.2307 63.4388 32.5918 63.1835L32.6194 63.164C32.9596 62.9233 33.3863 62.6215 33.9248 62.3923C34.4955 62.1495 35.1579 62 35.9901 62C37.713 62 38.635 62.6474 39.3899 63.1775L39.3957 63.1816C40.0608 63.6487 40.5636 64 41.6667 64C42.2496 64 42.6469 63.8991 42.958 63.767C43.2862 63.6277 43.5559 63.4402 43.9164 63.1845L43.9409 63.1671C44.2811 62.9255 44.7085 62.6221 45.2505 62.392C45.8227 62.1491 46.4873 62 47.3235 62C48.1597 62 48.825 62.1491 49.3981 62.3914C49.9412 62.621 50.3706 62.9237 50.7132 63.1653L50.7378 63.1826C51.1007 63.4383 51.3734 63.6266 51.7042 63.7664C52.018 63.8991 52.4171 64 53 64V66C52.1638 66 51.4985 65.8509 50.9254 65.6086C50.3823 65.379 49.9529 65.0763 49.6103 64.8347L49.5857 64.8174C49.2228 64.5617 48.9501 64.3734 48.6193 64.2336C48.3054 64.1009 47.9064 64 47.3235 64C46.7405 64 46.3433 64.1009 46.0321 64.233C45.704 64.3723 45.4342 64.5598 45.0738 64.8155L45.0492 64.8329C44.709 65.0745 44.2816 65.3779 43.7396 65.608C43.1675 65.8509 42.5028 66 41.6667 66C39.9315 66 39.0053 65.3513 38.2463 64.8184L38.2455 64.8178C37.5778 64.349 37.0809 64 35.9901 64C35.4131 64 35.0185 64.1005 34.7078 64.2327C34.3796 64.3723 34.109 64.5602 33.7465 64.8165L33.725 64.8317C33.3824 65.074 32.9526 65.378 32.4079 65.6085C31.8349 65.8509 31.1695 66 30.3333 66C29.4972 66 28.8325 65.8509 28.2604 65.608C27.7184 65.3779 27.291 65.0745 26.9508 64.833C26.9425 64.8271 26.9344 64.8213 26.9262 64.8155C26.5658 64.5598 26.296 64.3723 25.9679 64.233C25.6567 64.1009 25.2595 64 24.6765 64C24.0936 64 23.6946 64.1009 23.3807 64.2336C23.0499 64.3734 22.7772 64.5617 22.4143 64.8174C22.4061 64.8232 22.398 64.8289 22.3897 64.8347C22.0471 65.0763 21.6177 65.379 21.0746 65.6086Z" fill="black"/>
</svg>
