<svg width="72" height="72" viewBox="0 0 72 72" fill="none" xmlns="http://www.w3.org/2000/svg">
<rect width="72" height="72" fill="white"/>
<path d="M17 61H55V27.5L36 12L17 27.5V61Z" fill="#E6EEEF"/>
<path fill-rule="evenodd" clip-rule="evenodd" d="M35.9999 10.7146L62.6283 32.2221L61.3716 33.778L55.9999 29.4393V62H15.9999V29.4393L10.6283 33.778L9.37158 32.2221L35.9999 10.7146ZM17.9999 27.8239V60H53.9999V27.824L35.9999 13.2855L17.9999 27.8239Z" fill="black"/>
<path fill-rule="evenodd" clip-rule="evenodd" d="M30.1705 32.4415C30.6361 31.7431 31 31.1972 31 30H33C33 31.8006 32.3653 32.7549 31.8321 33.5547L31.8295 33.5585C31.3639 34.2569 31 34.8028 31 36C31 37.1972 31.3639 37.7431 31.8295 38.4415L31.8321 38.4453C32.3653 39.2451 33 40.1994 33 42C33 43.8006 32.3653 44.7549 31.8321 45.5547L31.8295 45.5585C31.3639 46.2569 31 46.8028 31 48H29C29 46.1994 29.6347 45.2451 30.1679 44.4453L30.1705 44.4415C30.6361 43.7431 31 43.1972 31 42C31 40.8028 30.6361 40.2569 30.1705 39.5585L30.1679 39.5547C29.6347 38.7549 29 37.8006 29 36C29 34.1994 29.6347 33.2451 30.1679 32.4453L30.1705 32.4415Z" fill="black"/>
<path fill-rule="evenodd" clip-rule="evenodd" d="M40.1705 35.4415C40.6361 34.7431 41 34.1972 41 33H43C43 34.8006 42.3653 35.7549 41.8321 36.5547L41.8295 36.5585C41.3639 37.2569 41 37.8028 41 39C41 40.1972 41.3639 40.7431 41.8295 41.4415L41.8321 41.4453C42.3653 42.2451 43 43.1994 43 45C43 46.8006 42.3653 47.7549 41.8321 48.5547L41.8295 48.5585C41.3639 49.2569 41 49.8028 41 51H39C39 49.1994 39.6347 48.2451 40.1679 47.4453L40.1705 47.4415C40.6361 46.7431 41 46.1972 41 45C41 43.8028 40.6361 43.2569 40.1705 42.5585L40.1679 42.5547C39.6347 41.7549 39 40.8006 39 39C39 37.1994 39.6347 36.2451 40.1679 35.4453L40.1705 35.4415Z" fill="black"/>
</svg>
