<svg width="20" height="20" viewBox="0 0 20 20" fill="none" xmlns="http://www.w3.org/2000/svg">
    <g clip-path="url(#clip0_1989_46311)">
        <path fill-rule="evenodd" clip-rule="evenodd"
            d="M2.25 10C2.25 5.71979 5.71979 2.25 10 2.25C14.2802 2.25 17.75 5.71979 17.75 10C17.75 14.2802 14.2802 17.75 10 17.75C5.71979 17.75 2.25 14.2802 2.25 10ZM10 0.25C4.61522 0.25 0.25 4.61522 0.25 10C0.25 15.3848 4.61522 19.75 10 19.75C15.3848 19.75 19.75 15.3848 19.75 10C19.75 4.61522 15.3848 0.25 10 0.25ZM10.9999 7.40625H8.4082V9.40625H8.99987V12.9766H8.4082V14.9766H11.5915V12.9766H10.9999V7.40625ZM9.20801 7.02344H10.7913V5.02344H9.20801V7.02344Z"
            fill="currentColor" />
    </g>
    <defs>
        <clipPath id="clip0_1989_46311">
            <rect width="20" height="20" fill="white" />
        </clipPath>
    </defs>
</svg>