<svg width="72" height="72" viewBox="0 0 72 72" fill="none" xmlns="http://www.w3.org/2000/svg">
<path d="M17 61H55V27.5L36 12L17 27.5V61Z" fill="#E6EEEF"/>
<path fill-rule="evenodd" clip-rule="evenodd" d="M35.9999 10.7146L62.6283 32.2221L61.3716 33.778L55.9999 29.4393V62H15.9999V29.4393L10.6283 33.778L9.37158 32.2221L35.9999 10.7146ZM17.9999 27.8239V60H53.9999V27.824L35.9999 13.2855L17.9999 27.8239Z" fill="black"/>
<path d="M44 45.6911C44 47.6295 43.1571 49.4885 41.6569 50.8592C40.1566 52.2299 38.1217 52.9999 36 52.9999C33.8783 52.9999 31.8434 52.2299 30.3431 50.8592C28.8429 49.4885 28 47.6295 28 45.6911C28 41.3548 29.7862 38.3903 32 36L34.5 38.9999L36 32C36 32 44 38.3822 44 45.6911Z" fill="white"/>
<path fill-rule="evenodd" clip-rule="evenodd" d="M36 32.0001L36.6236 31.2183L36.6268 31.2209L36.6329 31.2258L36.6535 31.2425C36.6711 31.2567 36.6959 31.2771 36.7277 31.3034C36.7912 31.356 36.8823 31.4325 36.9971 31.5315C37.2265 31.7295 37.551 32.0181 37.9388 32.3865C38.7131 33.1222 39.7465 34.1823 40.782 35.4815C42.8275 38.0478 45 41.6938 45 45.6911C45 47.9254 44.0277 50.0478 42.3313 51.5976C40.638 53.1446 38.3593 54 36 54C33.6407 54 31.362 53.1446 29.6686 51.5976C27.9723 50.0478 27 47.9254 27 45.6911C27 41.0293 28.9388 37.8336 31.2663 35.3206L32.0396 34.4856L33.9527 36.7813L35.3607 30.2108L36.6236 31.2183C36.6234 31.2181 36.6236 31.2183 36 32.0001ZM35.0473 41.2187L36.6177 33.8902C37.3366 34.577 38.2783 35.5492 39.218 36.7281C41.1725 39.1801 43 42.3796 43 45.6911C43 47.3337 42.2866 48.9294 40.9824 50.121C40.8008 50.2869 40.6099 50.4429 40.4108 50.5886C40.4695 50.3165 40.5 50.0367 40.5 49.7529C40.5 47.7948 39.4451 46.1294 38.5142 45.0265C38.0371 44.4613 37.5623 44.0081 37.2069 43.6958C37.0286 43.5391 36.8785 43.4163 36.7709 43.3312C36.717 43.2885 36.6736 43.2552 36.6425 43.2317L36.6051 43.2037L36.5937 43.1953L36.5899 43.1925L36.5873 43.1906L36 42.7644L35.4127 43.1906L35.4101 43.1925L35.4063 43.1953L35.3949 43.2037L35.3575 43.2317C35.3264 43.2552 35.283 43.2885 35.2291 43.3312C35.1215 43.4163 34.9714 43.5391 34.7931 43.6958C34.4377 44.0081 33.9629 44.4613 33.4858 45.0265C32.5549 46.1294 31.5 47.7948 31.5 49.7529C31.5 50.0367 31.5305 50.3165 31.5892 50.5886C31.3901 50.4429 31.1992 50.2869 31.0176 50.121C29.7134 48.9294 29 47.3337 29 45.6911C29 42.1741 30.256 39.6395 31.9814 37.5398L35.0473 41.2187ZM36 44C36.5873 43.1906 36.5871 43.1904 36.5873 43.1906L36 44ZM35.4127 43.1906C35.4129 43.1904 35.4127 43.1906 36 44L35.4127 43.1906ZM36.9858 46.3166C36.636 45.9021 36.2843 45.5563 36 45.2991C35.7157 45.5563 35.364 45.9021 35.0142 46.3166C34.1951 47.2868 33.5 48.4979 33.5 49.7529C33.5 50.3109 33.7407 50.8653 34.2014 51.2882C34.665 51.7138 35.3107 51.966 36 51.966C36.6893 51.966 37.335 51.7138 37.7986 51.2882C38.2593 50.8653 38.5 50.3109 38.5 49.7529C38.5 48.4979 37.8049 47.2868 36.9858 46.3166Z" fill="black"/>
</svg>
