<svg width="20" height="20" viewBox="0 0 20 20" fill="none" xmlns="http://www.w3.org/2000/svg">
    <g clip-path="url(#clip0_1989_46327)">
        <path fill-rule="evenodd" clip-rule="evenodd"
            d="M4.60679 -0.110794L10.4973 5.77969L8.12664 8.15032C7.97741 8.30289 7.89381 8.50786 7.89381 8.72136C7.89381 8.93486 7.97742 9.13984 8.12666 9.29241L10.7039 11.8696C10.7043 11.87 10.7046 11.8704 10.705 11.8708C10.8579 12.0217 11.064 12.1064 11.2789 12.1064C11.4937 12.1064 11.6999 12.0217 11.8527 11.8708C11.8531 11.8704 11.8535 11.87 11.8539 11.8696L14.2247 9.49881L20.1165 15.3906L17.0749 18.4104C17.0742 18.4111 17.0734 18.4118 17.0727 18.4126C15.6344 19.8544 13.4276 19.943 11.3167 19.32C9.16364 18.6846 6.84298 17.2507 4.82216 15.208C2.8064 13.1704 1.36524 10.8441 0.714376 8.69091C0.0770547 6.5825 0.134971 4.36764 1.58424 2.92263L4.60679 -0.110794ZM4.60933 2.72017L2.99711 4.33819C2.32278 5.00988 2.07677 6.2859 2.62882 8.11222C3.16754 9.89442 4.40972 11.9473 6.24396 13.8014C8.07314 15.6504 10.1108 16.8789 11.8828 17.4018C13.6958 17.9369 14.9795 17.68 15.6579 16.999L15.6618 16.995L17.283 15.3855L14.2247 12.3272L13.2652 13.2868L13.2622 13.2898C12.7347 13.8129 12.0218 14.1064 11.2789 14.1064C10.536 14.1064 9.82313 13.8129 9.2956 13.2898L9.29261 13.2868L6.70403 10.6982C6.18483 10.1712 5.89381 9.46113 5.89381 8.72136C5.89381 7.98158 6.18485 7.2715 6.70405 6.74452L6.70927 6.73923L7.66884 5.77969L4.60933 2.72017Z"
            fill="currentColor" />
    </g>
    <defs>
        <clipPath id="clip0_1989_46327">
            <rect width="20" height="20" fill="white" />
        </clipPath>
    </defs>
</svg>