<svg width="72" height="72" viewBox="0 0 72 72" fill="none" xmlns="http://www.w3.org/2000/svg">
<rect width="72" height="72" fill="white"/>
<path d="M16 39L36 59L56 39H49V13H23V39H16Z" fill="#E6EEEF"/>
<path fill-rule="evenodd" clip-rule="evenodd" d="M22.0002 12H50.0002V38H58.4144L36.0002 60.4142L13.5859 38H22.0002V12ZM24.0002 14V40H18.4144L36.0002 57.5858L53.5859 40H48.0002V14H24.0002Z" fill="black"/>
<path d="M33 22H39L37 29H43L33 42L35 33H30L33 22Z" fill="white"/>
<path fill-rule="evenodd" clip-rule="evenodd" d="M32.2364 21H40.3259L38.3259 28H45.031L31.0471 46.1791L33.7536 34H28.6909L32.2364 21ZM33.764 23L31.3094 32H36.2468L34.9533 37.8209L40.9693 30H35.6744L37.6744 23H33.764Z" fill="black"/>
</svg>
