<svg width="20" height="20" viewBox="0 0 20 20" fill="none" xmlns="http://www.w3.org/2000/svg">
    <g clip-path="url(#clip0_1989_46316)">
        <path fill-rule="evenodd" clip-rule="evenodd"
            d="M2.25 7.61667C2.25 4.65274 4.65274 2.25 7.61667 2.25C10.5806 2.25 12.9833 4.65274 12.9833 7.61667C12.9833 10.5806 10.5806 12.9833 7.61667 12.9833C4.65274 12.9833 2.25 10.5806 2.25 7.61667ZM7.61667 0.25C3.54817 0.25 0.25 3.54817 0.25 7.61667C0.25 11.6852 3.54817 14.9833 7.61667 14.9833C9.29025 14.9833 10.8335 14.4253 12.0704 13.485L18.043 19.4576L19.4572 18.0434L13.4847 12.0709C14.4251 10.8339 14.9833 9.29046 14.9833 7.61667C14.9833 3.54817 11.6852 0.25 7.61667 0.25Z"
            fill="currentColor" />
    </g>
    <defs>
        <clipPath id="clip0_1989_46316">
            <rect width="20" height="20" fill="white" />
        </clipPath>
    </defs>
</svg>