<svg width="72" height="72" viewBox="0 0 72 72" fill="none" xmlns="http://www.w3.org/2000/svg">
<rect width="72" height="72" fill="white"/>
<path d="M16 32C15.9973 31.2113 16.1506 30.4298 16.4511 29.7006C16.7517 28.9715 17.1935 28.3089 17.7512 27.7512C18.3089 27.1935 18.9715 26.7517 19.7007 26.4511C20.4299 26.1506 21.2113 25.9973 22 26C23.5913 26 25.1174 26.6322 26.2426 27.7574C27.3679 28.8826 28 30.4087 28 32" fill="#E6EEEF"/>
<path d="M16 32C15.9973 31.2113 16.1506 30.4298 16.4511 29.7006C16.7517 28.9715 17.1935 28.3089 17.7512 27.7512C18.3089 27.1935 18.9715 26.7517 19.7007 26.4511C20.4299 26.1506 21.2113 25.9973 22 26C23.5913 26 25.1174 26.6322 26.2426 27.7574C27.3679 28.8826 28 30.4087 28 32" stroke="black" stroke-width="2" stroke-miterlimit="10"/>
<path d="M22 23C24.2091 23 26 21.2091 26 19C26 16.7909 24.2091 15 22 15C19.7909 15 18 16.7909 18 19C18 21.2091 19.7909 23 22 23Z" fill="#E6EEEF" stroke="black" stroke-width="2" stroke-miterlimit="10"/>
<path fill-rule="evenodd" clip-rule="evenodd" d="M32 19H43.408C45.1584 19 46.8358 19.6909 48.0716 20.9185C49.3071 22.146 50 23.8094 50 25.5424V32.865L45.6402 29.2318L44.3599 30.7683L51 36.3017L57.6402 30.7683L56.3599 29.2318L52 32.865V25.5424C52 23.2747 51.0932 21.1012 49.4811 19.4997C47.8693 17.8984 45.6846 17 43.408 17H32V19Z" fill="black"/>
<path fill-rule="evenodd" clip-rule="evenodd" d="M27.6402 42.2317L21 36.6982L14.3599 42.2317L15.6402 43.7682L20 40.135V47.4203C20 49.6932 20.9053 51.8726 22.5159 53.4806C24.1264 55.0885 26.3107 55.9941 28.5895 56L28.5921 56H40V54H28.5932C26.8418 53.9951 25.1646 53.2989 23.929 52.0653C22.6932 50.8315 22 49.161 22 47.4203V40.135L26.3599 43.7682L27.6402 42.2317Z" fill="black"/>
<path fill-rule="evenodd" clip-rule="evenodd" d="M56 42H52V40H50V42C49.34 42 48.3722 42.1898 47.5407 42.7885C46.6582 43.4239 46 44.4741 46 46C46 46.66 46.1898 47.6278 46.7885 48.4593C47.4239 49.3418 48.4741 50 50 50H52C52.34 50 52.8722 50.1102 53.2907 50.4115C53.6582 50.6761 54 51.1259 54 52C54 52.8741 53.6582 53.3239 53.2907 53.5885C52.8722 53.8898 52.34 54 52 54H46V56H50V58H52V56C52.66 56 53.6278 55.8102 54.4593 55.2115C55.3418 54.5761 56 53.5259 56 52C56 50.4741 55.3418 49.4239 54.4593 48.7885C53.6278 48.1898 52.66 48 52 48H50C49.1259 48 48.6761 47.6582 48.4115 47.2907C48.1102 46.8722 48 46.34 48 46C48 45.1259 48.3418 44.6761 48.7093 44.4115C49.1278 44.1102 49.66 44 50 44H56V42Z" fill="black"/>
</svg>
