<svg width="500" height="549" viewBox="0 0 500 549" fill="none" xmlns="http://www.w3.org/2000/svg">
<path d="M130 181L250 76L370 181V365H130V181Z" fill="#E6EEEF"/>
<path fill-rule="evenodd" clip-rule="evenodd" d="M369 365V179H381V365H369Z" fill="black"/>
<path fill-rule="evenodd" clip-rule="evenodd" d="M119 365V179H131V365H119Z" fill="black"/>
<path d="M182 70H148V150L182 121V70Z" fill="white"/>
<path fill-rule="evenodd" clip-rule="evenodd" d="M202 62L128 62V74L136 74V162H148V74H182V122H194V74L202 74V62Z" fill="black"/>
<path d="M284 365V265H326V365H284Z" fill="white"/>
<path d="M172 297V265H238V297H172Z" fill="white"/>
<path fill-rule="evenodd" clip-rule="evenodd" d="M250 62L399 191L391 200L250 78L109 200L101 191L250 62Z" fill="black"/>
<path fill-rule="evenodd" clip-rule="evenodd" d="M131 441V377H119V453H381V377H369V441H131Z" fill="black"/>
<path fill-rule="evenodd" clip-rule="evenodd" d="M272 253H338V365H272V253ZM284 265V365H326V265H284Z" fill="black"/>
<path fill-rule="evenodd" clip-rule="evenodd" d="M160 253H250V309H160V253ZM171.983 265V297H238.017L238 265H171.983Z" fill="black"/>
<path fill-rule="evenodd" clip-rule="evenodd" d="M0 365H131V377H0V365Z" fill="black"/>
<path fill-rule="evenodd" clip-rule="evenodd" d="M131 365H369V377H131V365Z" fill="#FF1900"/>
<path fill-rule="evenodd" clip-rule="evenodd" d="M369 365H500V377H369V365Z" fill="black"/>
<path fill-rule="evenodd" clip-rule="evenodd" d="M243.941 431L250.171 417.666L246.522 415.937L243.219 423.005C243.219 423.005 241.634 420.411 240.952 418.813C240.271 417.215 239.608 415.812 239.608 413.868C239.608 412.337 239.888 411.268 240.271 410.413C240.67 409.519 241.207 408.786 241.893 407.865L241.934 407.81C242.585 406.936 243.371 405.881 243.968 404.546C244.594 403.144 244.985 401.505 244.985 399.424C244.985 397.344 244.594 395.704 243.968 394.303C243.371 392.968 242.585 391.912 241.934 391.038L241.893 390.984C241.207 390.063 240.67 389.329 240.271 388.435C239.888 387.58 239.608 386.511 239.608 384.981L235.575 384.981C235.575 387.061 235.967 388.701 236.593 390.102C237.189 391.437 237.975 392.493 238.626 393.367L238.667 393.421C239.353 394.342 239.89 395.076 240.29 395.97C240.672 396.825 240.952 397.894 240.952 399.424C240.952 400.955 240.672 402.023 240.29 402.879C239.89 403.773 239.353 404.506 238.667 405.427L238.626 405.482C237.975 406.356 237.189 407.411 236.593 408.746C235.967 410.148 235.575 411.787 235.575 413.868C235.575 416.888 236.593 419.152 237.063 420.167C237.534 421.183 239.433 424.43 239.433 424.43L232.032 420.742L230.342 424.43L243.941 431Z" fill="#FF1900"/>
<path fill-rule="evenodd" clip-rule="evenodd" d="M263.77 431L270 417.666L266.351 415.937L263.048 423.005C263.048 423.005 261.463 420.411 260.781 418.813C260.1 417.215 259.437 415.812 259.437 413.868C259.437 412.337 259.718 411.268 260.1 410.413C260.499 409.519 261.037 408.786 261.722 407.865L261.763 407.81C262.414 406.936 263.2 405.881 263.797 404.546C264.423 403.144 264.814 401.505 264.814 399.424C264.814 397.344 264.423 395.704 263.797 394.303C263.2 392.968 262.414 391.912 261.763 391.038L261.722 390.984C261.037 390.063 260.499 389.329 260.1 388.435C259.718 387.58 259.437 386.511 259.437 384.981L255.404 384.981C255.404 387.061 255.796 388.701 256.422 390.102C257.018 391.437 257.805 392.493 258.455 393.367L258.496 393.421C259.182 394.342 259.719 395.076 260.119 395.97C260.501 396.825 260.781 397.894 260.781 399.424C260.781 400.955 260.501 402.023 260.119 402.879C259.719 403.773 259.182 404.506 258.496 405.427L258.455 405.482C257.805 406.356 257.018 407.411 256.422 408.746C255.796 410.148 255.404 411.787 255.404 413.868C255.404 416.888 256.422 419.152 256.893 420.167C257.363 421.183 259.262 424.43 259.262 424.43L251.861 420.742L250.171 424.43L263.77 431Z" fill="#FF1900"/>
</svg>
