<svg width="500" height="397" viewBox="0 0 500 397" fill="none" xmlns="http://www.w3.org/2000/svg">
<path d="M249.5 14L381.5 127.5H119.5L249.5 14Z" fill="#E6EEEF"/>
<path d="M375 120.625V315.938H125V120.625" fill="#E6EEEF"/>
<path d="M375 120.625V315.938H125V120.625M375 120.625L394 137M375 120.625L249 14L125 120.625M125 120.625L103.5 139.5" stroke="black" stroke-width="12" stroke-miterlimit="10"/>
<path d="M375 316V391H125V316" stroke="black" stroke-width="12" stroke-miterlimit="10"/>
<path d="M331.25 203.438H278.125V315.938H331.25V203.438Z" fill="white" stroke="black" stroke-width="12" stroke-miterlimit="10"/>
<path d="M243.75 203.438H165.625V247.188H243.75V203.438Z" fill="white" stroke="black" stroke-width="12" stroke-miterlimit="10"/>
<path d="M500 315.938H0" stroke="black" stroke-width="12" stroke-miterlimit="10"/>
<path d="M142.188 105L142.188 8.125H187.5V64.5" stroke="black" stroke-width="12" stroke-miterlimit="10"/>
<path d="M201.562 6.56249L128.125 6.5625" stroke="black" stroke-width="12" stroke-miterlimit="10"/>
</svg>
