<svg width="500" height="549" viewBox="0 0 500 549" fill="none" xmlns="http://www.w3.org/2000/svg">
<path d="M130 181L250 76L370 181V365H130V181Z" fill="#E6EEEF"/>
<path fill-rule="evenodd" clip-rule="evenodd" d="M369 365V179H381V365H369Z" fill="#FF1900"/>
<path fill-rule="evenodd" clip-rule="evenodd" d="M119 365V179H131V365H119Z" fill="#FF1900"/>
<path d="M182 70H148V150L182 121V70Z" fill="white"/>
<path fill-rule="evenodd" clip-rule="evenodd" d="M202 62L128 62V74L136 74V162H148V74H182V122H194V74L202 74V62Z" fill="black"/>
<path d="M284 365V265H326V365H284Z" fill="white"/>
<path d="M172 297V265H238V297H172Z" fill="white"/>
<path fill-rule="evenodd" clip-rule="evenodd" d="M250 62L399 191L391 200L250 78L109 200L101 191L250 62Z" fill="black"/>
<path fill-rule="evenodd" clip-rule="evenodd" d="M131 441V377H119V453H381V377H369V441H131Z" fill="black"/>
<path fill-rule="evenodd" clip-rule="evenodd" d="M272 253H338V365H272V253ZM284 265V365H326V265H284Z" fill="black"/>
<path fill-rule="evenodd" clip-rule="evenodd" d="M160 253H250V309H160V253ZM171.983 265V297H238.017L238 265H171.983Z" fill="black"/>
<path fill-rule="evenodd" clip-rule="evenodd" d="M0 365H131V377H0V365Z" fill="black"/>
<path fill-rule="evenodd" clip-rule="evenodd" d="M131 365H369V377H131V365Z" fill="black"/>
<path fill-rule="evenodd" clip-rule="evenodd" d="M369 365H500V377H369V365Z" fill="black"/>
<path fill-rule="evenodd" clip-rule="evenodd" d="M35 281.111L54.7025 272L57.2584 277.337L46.8141 282.167C46.8141 282.167 50.6462 284.485 53.0075 285.482C55.3688 286.479 57.4422 287.448 60.3156 287.448C62.5771 287.448 64.1562 287.038 65.42 286.479C66.7409 285.895 67.8248 285.109 69.186 284.106L69.2667 284.046C70.5577 283.095 72.1177 281.945 74.0902 281.072C76.1612 280.157 78.5838 279.584 81.6578 279.584C84.7319 279.584 87.1544 280.157 89.2254 281.072C91.1979 281.945 92.7579 283.095 94.049 284.046L94.1296 284.106C95.4908 285.109 96.5747 285.895 97.8956 286.479C99.1594 287.038 100.739 287.448 103 287.448L103 293.347C99.9259 293.347 97.5034 292.774 95.4324 291.858C93.4599 290.986 91.8999 289.836 90.6088 288.884L90.5282 288.825C89.167 287.821 88.0831 287.035 86.7622 286.451C85.4984 285.892 83.9193 285.482 81.6578 285.482C79.3963 285.482 77.8172 285.892 76.5534 286.451C75.2325 287.035 74.1486 287.821 72.7874 288.825L72.7068 288.884C71.4157 289.836 69.8557 290.986 67.8832 291.858C65.8122 292.774 63.3896 293.347 60.3156 293.347C55.8526 293.347 52.5073 291.858 51.0067 291.17C49.506 290.481 44.708 287.705 44.708 287.705L50.158 298.528L44.708 301L35 281.111Z" fill="#FF1900"/>
<path fill-rule="evenodd" clip-rule="evenodd" d="M35 252.111L54.7025 243L57.2584 248.337L46.8141 253.167C46.8141 253.167 50.6462 255.485 53.0075 256.482C55.3688 257.479 57.4422 258.448 60.3156 258.448C62.5771 258.448 64.1562 258.038 65.42 257.479C66.7409 256.895 67.8248 256.109 69.186 255.106L69.2667 255.046C70.5577 254.095 72.1177 252.945 74.0902 252.072C76.1612 251.157 78.5838 250.584 81.6578 250.584C84.7319 250.584 87.1544 251.157 89.2254 252.072C91.1979 252.945 92.7579 254.095 94.049 255.046L94.1296 255.106C95.4908 256.109 96.5747 256.895 97.8956 257.479C99.1594 258.038 100.739 258.448 103 258.448L103 264.347C99.9259 264.347 97.5034 263.774 95.4324 262.858C93.4599 261.986 91.8999 260.836 90.6088 259.884L90.5282 259.825C89.167 258.821 88.0831 258.035 86.7622 257.451C85.4984 256.892 83.9193 256.482 81.6578 256.482C79.3963 256.482 77.8172 256.892 76.5534 257.451C75.2325 258.035 74.1486 258.821 72.7874 259.825L72.7068 259.884C71.4157 260.836 69.8557 261.986 67.8832 262.858C65.8122 263.774 63.3896 264.347 60.3156 264.347C55.8526 264.347 52.5073 262.858 51.0067 262.17C49.506 261.481 44.708 258.705 44.708 258.705L50.158 269.528L44.708 272L35 252.111Z" fill="#FF1900"/>
<path fill-rule="evenodd" clip-rule="evenodd" d="M464.972 281.111L445.269 272L442.713 277.337L453.158 282.167C453.158 282.167 449.326 284.485 446.964 285.482C444.603 286.479 442.529 287.448 439.656 287.448C437.395 287.448 435.815 287.038 434.552 286.479C433.231 285.895 432.147 285.109 430.786 284.106L430.705 284.046C429.414 283.095 427.854 281.945 425.881 281.072C423.81 280.157 421.388 279.584 418.314 279.584C415.24 279.584 412.817 280.157 410.746 281.072C408.774 281.945 407.214 283.095 405.923 284.046L405.842 284.106C404.481 285.109 403.397 285.895 402.076 286.479C400.812 287.038 399.233 287.448 396.972 287.448L396.972 293.347C400.046 293.347 402.468 292.774 404.539 291.858C406.512 290.986 408.072 289.836 409.363 288.884L409.444 288.825C410.805 287.821 411.889 287.035 413.21 286.451C414.473 285.892 416.052 285.482 418.314 285.482C420.575 285.482 422.154 285.892 423.418 286.451C424.739 287.035 425.823 287.821 427.184 288.825L427.265 288.884C428.556 289.836 430.116 290.986 432.089 291.858C434.159 292.774 436.582 293.347 439.656 293.347C444.119 293.347 447.464 291.858 448.965 291.17C450.466 290.481 455.264 287.705 455.264 287.705L449.814 298.528L455.264 301L464.972 281.111Z" fill="#FF1900"/>
<path fill-rule="evenodd" clip-rule="evenodd" d="M464.972 252.111L445.269 243L442.713 248.337L453.158 253.167C453.158 253.167 449.326 255.485 446.964 256.482C444.603 257.479 442.529 258.448 439.656 258.448C437.395 258.448 435.815 258.038 434.552 257.479C433.231 256.895 432.147 256.109 430.786 255.106L430.705 255.046C429.414 254.095 427.854 252.945 425.881 252.072C423.81 251.157 421.388 250.584 418.314 250.584C415.24 250.584 412.817 251.157 410.746 252.072C408.774 252.945 407.214 254.095 405.923 255.046L405.842 255.106C404.481 256.109 403.397 256.895 402.076 257.479C400.812 258.038 399.233 258.448 396.972 258.448L396.972 264.347C400.046 264.347 402.468 263.774 404.539 262.858C406.512 261.986 408.072 260.836 409.363 259.884L409.444 259.825C410.805 258.821 411.889 258.035 413.21 257.451C414.473 256.892 416.052 256.482 418.314 256.482C420.575 256.482 422.154 256.892 423.418 257.451C424.739 258.035 425.823 258.821 427.184 259.825L427.265 259.884C428.556 260.836 430.116 261.986 432.089 262.858C434.159 263.774 436.582 264.347 439.656 264.347C444.119 264.347 447.464 262.858 448.965 262.17C450.466 261.481 455.264 258.705 455.264 258.705L449.814 269.528L455.264 272L464.972 252.111Z" fill="#FF1900"/>
</svg>
