<svg width="500" height="549" viewBox="0 0 500 549" fill="none" xmlns="http://www.w3.org/2000/svg">
<path d="M130 181L250 76L370 181V365H130V181Z" fill="#E6EEEF"/>
<path fill-rule="evenodd" clip-rule="evenodd" d="M369 365V179H381V365H369Z" fill="black"/>
<path fill-rule="evenodd" clip-rule="evenodd" d="M119 365V179H131V365H119Z" fill="black"/>
<path d="M182 70H148V150L182 121V70Z" fill="white"/>
<path fill-rule="evenodd" clip-rule="evenodd" d="M202 62L128 62V74L136 74V162H148V74H182V122H194V74L202 74V62Z" fill="black"/>
<path d="M284 365V265H326V365H284Z" fill="white"/>
<path d="M172 297V265H238V297H172Z" fill="white"/>
<path fill-rule="evenodd" clip-rule="evenodd" d="M250 62L399 191L391 200L250 78L109 200L101 191L250 62Z" fill="#FF1900"/>
<path fill-rule="evenodd" clip-rule="evenodd" d="M131 441V377H119V453H381V377H369V441H131Z" fill="black"/>
<path fill-rule="evenodd" clip-rule="evenodd" d="M272 253H338V365H272V253ZM284 265V365H326V265H284Z" fill="black"/>
<path fill-rule="evenodd" clip-rule="evenodd" d="M160 253H250V309H160V253ZM171.983 265V297H238.017L238 265H171.983Z" fill="black"/>
<path fill-rule="evenodd" clip-rule="evenodd" d="M0 365H131V377H0V365Z" fill="black"/>
<path fill-rule="evenodd" clip-rule="evenodd" d="M131 365H369V377H131V365Z" fill="black"/>
<path fill-rule="evenodd" clip-rule="evenodd" d="M369 365H500V377H369V365Z" fill="black"/>
<path fill-rule="evenodd" clip-rule="evenodd" d="M377.092 57.1376L371.196 78.0286L365.48 76.4982L368.605 65.424C368.605 65.424 364.352 66.8264 362.059 67.9713C359.765 69.1162 357.681 70.0607 355.811 72.2431C354.34 73.9607 353.625 75.427 353.227 76.7503C352.812 78.1336 352.704 79.4682 352.58 81.1545L352.573 81.2545C352.456 82.8542 352.315 84.7871 351.694 86.8526C351.042 89.0212 349.902 91.2339 347.902 93.5687C345.902 95.9035 343.892 97.3709 341.849 98.3481C339.903 99.2789 338.015 99.7157 336.452 100.077L336.355 100.1C334.707 100.481 333.405 100.793 332.102 101.416C330.856 102.013 329.517 102.945 328.046 104.663L323.566 100.826C325.566 98.4913 327.577 97.0239 329.619 96.0467C331.565 95.1159 333.453 94.6791 335.016 94.3176L335.113 94.295C336.761 93.9137 338.063 93.6018 339.366 92.9784C340.612 92.3821 341.951 91.4496 343.422 89.7319C344.893 88.0142 345.609 86.548 346.006 85.2247C346.422 83.8414 346.53 82.5068 346.653 80.8205L346.661 80.7206C346.778 79.1208 346.919 77.1879 347.54 75.1224C348.191 72.9537 349.332 70.7411 351.332 68.4063C354.235 65.0166 357.541 63.444 359.04 62.752C360.539 62.0601 365.769 60.2219 365.769 60.2219L354.003 57.3209L355.671 51.5736L377.092 57.1376Z" fill="#FF1900"/>
<path fill-rule="evenodd" clip-rule="evenodd" d="M399.118 76.0015L393.222 96.8925L387.506 95.3621L390.631 84.2879C390.631 84.2879 386.378 85.6903 384.084 86.8352C381.791 87.9801 379.706 88.9245 377.837 91.107C376.366 92.8246 375.651 94.2908 375.253 95.6142C374.837 96.9975 374.729 98.3321 374.606 100.018L374.599 100.118C374.482 101.718 374.34 103.651 373.72 105.717C373.068 107.885 371.928 110.098 369.928 112.433C367.928 114.767 365.917 116.235 363.875 117.212C361.929 118.143 360.041 118.58 358.478 118.941L358.381 118.964C356.733 119.345 355.431 119.657 354.128 120.28C352.882 120.877 351.543 121.809 350.072 123.527L345.592 119.69C347.592 117.355 349.603 115.888 351.645 114.911C353.591 113.98 355.479 113.543 357.042 113.181L357.139 113.159C358.787 112.778 360.089 112.466 361.392 111.842C362.638 111.246 363.977 110.313 365.448 108.596C366.919 106.878 367.635 105.412 368.032 104.089C368.448 102.705 368.556 101.371 368.679 99.6844L368.687 99.5844C368.804 97.9847 368.945 96.0518 369.565 93.9863C370.217 91.8176 371.358 89.605 373.357 87.2702C376.26 83.8805 379.567 82.3079 381.066 81.6159C382.565 80.9239 387.795 79.0858 387.795 79.0858L376.029 76.1848L377.697 70.4375L399.118 76.0015Z" fill="#FF1900"/>
</svg>
