<svg width="500" height="549" viewBox="0 0 500 549" fill="none" xmlns="http://www.w3.org/2000/svg">
<path d="M130 181L250 76L370 181V365H130V181Z" fill="#E6EEEF"/>
<path fill-rule="evenodd" clip-rule="evenodd" d="M369 365V179H381V365H369Z" fill="black"/>
<path fill-rule="evenodd" clip-rule="evenodd" d="M119 365V179H131V365H119Z" fill="black"/>
<path d="M182 70H148V150L182 121V70Z" fill="white"/>
<path fill-rule="evenodd" clip-rule="evenodd" d="M202 62L128 62V74L136 74V162H148V74H182V122H194V74L202 74V62Z" fill="black"/>
<path opacity="0.3" d="M284 365V265H326V365H284Z" fill="#FF1900"/>
<path opacity="0.3" d="M172 297V265H238V297H172Z" fill="#FF1900"/>
<path fill-rule="evenodd" clip-rule="evenodd" d="M250 62L399 191L391 200L250 78L109 200L101 191L250 62Z" fill="black"/>
<path fill-rule="evenodd" clip-rule="evenodd" d="M131 441V377H119V453H381V377H369V441H131Z" fill="black"/>
<path fill-rule="evenodd" clip-rule="evenodd" d="M272 253H338V365H272V253ZM284 265V365H326V265H284Z" fill="#FF1900"/>
<path fill-rule="evenodd" clip-rule="evenodd" d="M160 253H250V309H160V253ZM171.983 265V297H238.017L238 265H171.983Z" fill="#FF1900"/>
<path fill-rule="evenodd" clip-rule="evenodd" d="M0 365H131V377H0V365Z" fill="black"/>
<path fill-rule="evenodd" clip-rule="evenodd" d="M131 365H369V377H131V365Z" fill="black"/>
<path fill-rule="evenodd" clip-rule="evenodd" d="M369 365H500V377H369V365Z" fill="black"/>
<path fill-rule="evenodd" clip-rule="evenodd" d="M76 290.111L95.7025 281L98.2584 286.337L87.8141 291.167C87.8141 291.167 91.6462 293.485 94.0075 294.482C96.3688 295.479 98.4422 296.448 101.316 296.448C103.577 296.448 105.156 296.038 106.42 295.479C107.741 294.895 108.825 294.109 110.186 293.106L110.267 293.046C111.558 292.095 113.118 290.945 115.09 290.072C117.161 289.157 119.584 288.584 122.658 288.584C125.732 288.584 128.154 289.157 130.225 290.072C132.198 290.945 133.758 292.095 135.049 293.046L135.13 293.106C136.491 294.109 137.575 294.895 138.896 295.479C140.159 296.038 141.739 296.448 144 296.448L144 302.347C140.926 302.347 138.503 301.774 136.432 300.858C134.46 299.986 132.9 298.836 131.609 297.884L131.528 297.825C130.167 296.821 129.083 296.035 127.762 295.451C126.498 294.892 124.919 294.482 122.658 294.482C120.396 294.482 118.817 294.892 117.553 295.451C116.232 296.035 115.149 296.821 113.787 297.825L113.707 297.884C112.416 298.836 110.856 299.986 108.883 300.858C106.812 301.774 104.39 302.347 101.316 302.347C96.8526 302.347 93.5073 300.858 92.0067 300.17C90.506 299.481 85.708 296.705 85.708 296.705L91.158 307.528L85.708 310L76 290.111Z" fill="#FF1900"/>
<path fill-rule="evenodd" clip-rule="evenodd" d="M76 261.111L95.7025 252L98.2584 257.337L87.8141 262.167C87.8141 262.167 91.6462 264.485 94.0075 265.482C96.3688 266.479 98.4422 267.448 101.316 267.448C103.577 267.448 105.156 267.038 106.42 266.479C107.741 265.895 108.825 265.109 110.186 264.106L110.267 264.046C111.558 263.095 113.118 261.945 115.09 261.072C117.161 260.157 119.584 259.584 122.658 259.584C125.732 259.584 128.154 260.157 130.225 261.072C132.198 261.945 133.758 263.095 135.049 264.046L135.13 264.106C136.491 265.109 137.575 265.895 138.896 266.479C140.159 267.038 141.739 267.448 144 267.448L144 273.347C140.926 273.347 138.503 272.774 136.432 271.858C134.46 270.986 132.9 269.836 131.609 268.884L131.528 268.825C130.167 267.821 129.083 267.035 127.762 266.451C126.498 265.892 124.919 265.482 122.658 265.482C120.396 265.482 118.817 265.892 117.553 266.451C116.232 267.035 115.149 267.821 113.787 268.825L113.707 268.884C112.416 269.836 110.856 270.986 108.883 271.858C106.812 272.774 104.39 273.347 101.316 273.347C96.8526 273.347 93.5073 271.858 92.0067 271.17C90.506 270.481 85.708 267.705 85.708 267.705L91.158 278.528L85.708 281L76 261.111Z" fill="#FF1900"/>
</svg>
