<svg width="158" height="68" viewBox="0 0 158 68" fill="none" xmlns="http://www.w3.org/2000/svg">
    <g clip-path="url(#clip0_927_18967)">
        <path
            d="M70.0164 0C81.6322 22.2552 93.3476 45.3473 104.585 67.7021C98.747 67.7021 92.9093 67.7021 87.211 67.7021H86.7726C80.0582 53.9744 52.2441 0 52.2441 0C52.2441 0 64.099 0.119545 70.0164 0Z"
            fill="currentColor" />
        <path
            d="M44.8323 51.4241L53.0012 67.6822C51.8655 67.6822 35.4281 67.6822 35.4281 67.6822C23.9916 45.3273 11.9575 22.6736 0.939453 0.0199127H18.3531C18.3531 0.0199127 44.0552 49.7106 44.8522 51.4241"
            fill="currentColor" />
        <path
            d="M148.856 51.4241L157.025 67.6822C155.889 67.6822 139.452 67.6822 139.452 67.6822C128.035 45.3273 115.981 22.6736 104.963 0.0199127H122.357C122.357 0.0199127 148.059 49.7106 148.856 51.4241Z"
            fill="currentColor" />
        <path
            d="M54.4357 19.4061C54.4955 19.2068 54.7345 18.9279 54.5951 18.8283C54.5353 18.7884 54.2165 18.7884 54.097 18.8283C53.9774 18.8681 53.9376 18.9279 53.8977 19.0076C52.7023 20.7809 55.1928 21.8568 56.0694 23.1319C56.2089 23.3311 56.2089 23.5503 56.2288 23.7894C56.2288 23.889 56.3086 24.0285 56.4679 24.0086C56.7668 23.9687 56.9461 23.5503 56.9262 23.3909C56.6672 22.1357 55.1928 21.4981 54.4955 20.4421C54.2962 20.1433 54.2763 19.7647 54.3958 19.4061H54.4357Z"
            fill="currentColor" />
        <path
            d="M60.0146 23.0721C59.656 23.0323 59.6161 22.5939 59.6759 22.2353C59.7357 21.9564 60.0345 21.6376 60.3134 21.8966C60.5127 22.0958 60.8315 22.315 60.7717 22.574C60.7119 22.8928 60.3135 23.092 60.0146 23.0721ZM57.8628 19.3264C57.8628 19.3264 57.7034 19.4459 57.6436 19.5456C57.2252 20.3624 56.4282 20.9602 56.6275 21.9165C56.7271 22.4545 57.4444 22.853 57.6237 23.0721C57.7034 23.1518 57.7831 23.2116 57.7632 23.3311C57.6835 23.8093 56.9463 24.427 56.4083 24.5266C55.8106 24.6461 55.8106 23.4507 55.3324 23.6698C54.8542 23.8691 54.0573 25.0645 54.5554 25.3435C56.0696 26.1803 56.5876 26.4592 57.8229 26.6983C59.8353 27.0968 60.5525 24.5067 61.2698 23.1319C61.4093 22.8729 61.8874 22.7733 61.8277 22.5541C61.4292 20.7011 59.5165 20.1034 57.8827 19.3463L57.8628 19.3264Z"
            fill="currentColor" />
        <path
            d="M68.3028 47.4792C67.964 47.9573 67.5058 48.3359 66.9479 48.5351C64.3379 49.4516 61.8274 45.5266 60.7117 43.0162C59.3568 39.9478 58.002 37.0588 56.8464 33.9308C57.5836 33.3928 58.1614 32.7552 58.9584 32.1974C58.1216 34.5285 59.7952 36.8198 61.4887 38.334C63.7003 40.3065 66.0314 41.9403 68.0238 44.2514C68.8009 45.168 69.0001 46.463 68.3028 47.4792ZM55.8104 31.5199C55.6709 31.2809 55.5514 31.0019 55.6908 30.7628C55.7506 30.6632 56.0096 30.5038 56.0494 30.6632C56.1889 31.1613 56.4479 31.6594 56.9261 31.779C56.687 32.3368 56.0096 31.8985 55.8104 31.5199ZM55.1728 28.5712C55.0732 28.2723 54.9138 27.9535 55.5115 27.7742C55.631 28.4118 55.7904 28.7505 56.169 29.149C56.169 29.149 55.9498 29.3084 55.8701 29.2884C55.5513 29.2486 55.2724 28.87 55.1728 28.5712ZM54.2762 33.4127C53.9176 33.074 53.6386 32.4763 54.0172 31.9782C54.0769 31.8985 54.2164 31.9184 54.2363 31.9782C54.316 32.5161 54.7145 32.9146 54.9736 33.3131C55.1529 33.5921 54.5551 33.6518 54.2961 33.4127H54.2762ZM53.4394 30.723C53.1007 30.4241 52.9612 30.0854 53.1007 29.7268C53.1206 29.6272 53.3796 29.4678 53.4394 29.6272C53.5988 30.0655 53.7582 30.5636 54.2762 30.6433C54.1367 31.1015 53.7781 31.0019 53.4394 30.723ZM52.3236 34.668C52.0248 34.4089 51.9252 33.9308 52.0447 33.5124C52.0447 33.4725 52.1642 33.4127 52.224 33.4127C52.6026 33.5124 52.6026 33.9308 52.762 34.2097C52.8616 34.4089 52.9811 34.4089 53.1206 34.6281C52.9811 35.0864 52.5428 34.8473 52.3436 34.668H52.3236ZM51.2876 32.0778C51.168 31.8587 50.9887 31.6395 50.9688 31.4203C50.9688 31.241 51.2876 30.8425 51.3872 31.0617C51.5864 31.5 51.6861 31.9383 52.224 32.1974C52.0048 32.7154 51.5067 32.5361 51.2876 32.0778ZM50.2117 35.5446C50.1519 35.2458 50.1718 34.6082 50.5902 34.7875C50.7496 34.8672 50.6699 35.186 50.8492 35.445C51.0086 35.6841 51.2477 35.9232 51.2278 36.0427C51.1481 36.76 50.3113 35.9829 50.2117 35.5446ZM49.3948 32.5958C49.3948 32.5958 49.6339 32.4165 49.6737 32.5361C49.7534 32.7552 49.853 32.9346 49.9726 33.1139C50.132 33.3729 50.6301 33.4127 50.4707 33.7913C50.4308 33.871 50.2914 33.9507 50.2117 33.9308C49.614 33.8112 49.0959 33.1936 49.3948 32.5958ZM48.4783 30.1452C48.4185 29.926 48.6775 29.6471 48.9764 29.7467C48.8768 29.8862 49.1756 30.3843 49.2553 30.4839C49.4745 30.7628 49.3948 30.8027 49.7136 30.9421C49.594 31.3008 49.1557 31.3605 48.9565 31.1015C48.7373 30.8027 48.558 30.5038 48.4783 30.1651V30.1452ZM50.3711 28.6708C50.3711 28.6708 50.4508 28.3719 50.6699 28.3719C50.9688 28.4118 50.8293 28.7306 50.8692 28.89C50.9489 29.2287 51.447 29.3881 51.3872 29.8065C51.3872 29.8662 51.2278 29.926 51.1282 29.9459C51.0485 29.9459 50.9289 29.926 50.8692 29.8662C50.5105 29.5275 50.2515 29.1689 50.3511 28.6907L50.3711 28.6708ZM52.2639 27.4355C52.3236 27.3359 52.5827 27.1765 52.6026 27.316C52.7022 27.8141 53.0608 28.1727 53.3198 28.5513C53.4394 28.7106 52.8417 28.9497 52.6225 28.6708C52.3236 28.3122 52.0049 27.8938 52.2639 27.4355ZM58.0618 28.6309C58.2809 28.6907 58.5001 29.4678 59.1377 29.7268C59.0779 29.8662 58.9982 30.0854 58.8587 30.0854C58.4204 30.0854 58.1415 29.7666 57.9024 29.408C57.6434 29.0095 57.9422 28.611 58.0618 28.6509V28.6309ZM70.7534 44.5702C68.9802 40.3463 64.5172 38.4934 61.4489 35.1661C60.7914 34.4687 60.4925 33.3928 61.0305 32.556C61.3692 32.018 61.927 31.6793 62.5845 31.7391C63.7601 31.8188 64.557 32.7552 64.9356 33.8311C64.6766 33.7315 64.4574 33.9108 64.3379 34.0503C64.0191 34.4488 64.0589 35.0664 64.3777 35.4251C64.8958 35.9829 65.6927 36.1423 66.3103 35.5845C66.9878 34.9668 66.9479 34.0304 66.7089 33.2334C65.9318 30.5636 62.9233 28.7505 60.3929 30.205C60.9109 28.6309 61.5286 27.2363 62.2658 25.7021C62.3853 25.4232 62.8635 25.3833 63.1225 25.1243C63.6206 24.6262 63.4413 23.5702 62.7439 23.2315C62.4252 23.0721 62.0267 23.092 61.8872 23.371C61.15 24.8454 60.6918 26.6186 59.0381 27.2163C57.1054 27.9336 55.5115 26.1006 53.6386 25.722C52.3236 25.463 51.3274 26.2998 50.1519 26.6784C48.9764 23.9089 48.02 21.0399 46.6054 18.37C46.187 17.593 45.9081 16.7562 45.3103 16.019C44.8919 15.501 44.5333 15.0626 43.9953 14.6841C43.5371 14.3653 42.6007 13.927 42.1424 14.6641C42.7999 15.0029 43.6566 15.4611 43.557 16.278C43.5371 16.4772 43.3976 16.6566 43.1187 16.4772C42.6804 15.9991 42.3616 15.5209 41.724 15.2818C41.4052 15.1622 40.947 15.0029 40.6481 15.2818C40.409 15.501 40.2895 15.9991 40.5684 16.1784C40.947 16.4175 41.465 16.2382 41.8635 16.4972C42.3815 16.8159 42.8398 17.2941 42.8198 17.8919C42.8198 18.0114 42.5807 18.2704 42.4811 18.1907C42.242 18.0114 42.0826 17.593 41.7838 17.3141C41.3255 16.8757 40.7876 16.6765 40.3492 17.1148C39.6519 17.852 40.688 19.5456 41.5447 20.3824C42.0428 20.8605 42.6604 21.0797 43.3578 21.1395C43.6168 23.2514 44.1747 25.4232 44.613 27.5152C43.8758 26.8776 43.298 26.2002 42.6405 25.6025C41.983 25.0048 41.3654 24.3672 40.6879 23.7695C39.9507 23.112 39.3132 22.4346 38.3967 21.9564C37.5997 21.538 36.8625 21.1993 35.9859 21.3985C35.687 21.4583 35.1889 21.7771 35.3483 21.8966C35.9062 22.2752 36.7231 22.2752 37.261 22.7733C37.52 23.0123 37.5599 23.7894 37.2212 23.5503C36.3047 22.8729 34.2325 21.9364 34.1528 23.7894C34.1528 24.0683 34.5912 23.8691 35.0694 23.889C35.5475 23.9089 36.0656 24.0883 36.3844 24.3273C36.6434 24.5266 36.9223 24.6461 36.9621 24.9649C36.9821 25.204 36.7828 25.4232 36.6234 25.3634C36.1054 25.0845 35.687 24.6063 35.0893 24.666C34.5912 24.7059 34.1927 25.0048 34.3521 25.4232C34.9498 27.037 37.0817 28.5313 38.7553 27.6746C40.9868 30.2448 43.0191 32.9744 45.4897 35.3653C46.0276 35.8833 47.0637 35.1262 47.8805 34.8871C47.7211 35.3852 47.761 35.8435 47.9603 36.3017C49.0959 38.9915 51.9451 40.3065 53.798 42.4384C52.8815 42.0598 51.8853 41.9602 50.909 42.02C49.9128 42.0996 49.335 42.9365 49.3151 43.833C48.0001 41.6812 46.7847 39.5095 45.0713 37.6167C44.4337 36.8995 43.298 35.7239 42.2221 36.7998C42.1623 36.8596 42.1424 36.9791 42.2221 37.019C42.8796 37.2581 43.577 37.537 43.7961 38.2543C43.8758 38.5133 43.6965 38.8321 43.557 38.7125C42.8995 38.2543 42.4214 37.4972 41.465 37.6765C40.9271 37.796 40.6083 38.593 41.1064 38.8919C41.4849 39.111 42.0029 39.0911 42.4214 39.2903C42.6804 39.4298 43.5172 39.9279 43.3777 40.6053C43.3777 40.685 43.1984 40.8843 43.0789 40.8046C42.78 40.6053 41.8436 39.1907 40.9868 39.8283C40.2098 40.426 41.2857 41.6812 41.9233 42.3387C42.5807 43.0361 43.5371 43.594 44.5333 43.1755C45.7487 45.7657 47.0238 48.316 48.2392 50.926C50.1918 49.6708 52.2838 47.4592 54.8142 48.4355C54.854 50.4478 53.3796 52.2609 54.0769 54.2932C54.7145 56.1461 56.7667 56.8036 58.4603 57.4412C57.7829 59.6727 56.6472 61.685 55.9698 63.9763C55.631 65.1319 55.7904 66.6661 57.1253 67.1044C57.0257 65.889 56.7468 65.371 57.4242 64.574C57.6434 64.315 58.0618 64.4545 57.9821 64.7733C57.8028 65.4706 57.5438 66.0285 57.8625 66.8255C58.0618 67.3036 58.5001 67.6822 58.9783 67.6424C59.2971 67.6424 59.5362 67.2837 59.576 66.9849C59.6557 66.4868 59.1576 66.4071 59.0381 65.9488C58.9185 65.4308 58.8787 64.9725 59.1377 64.4744C59.2572 64.2353 59.4764 64.0759 59.7155 64.0361C59.835 64.0759 59.8749 64.0959 59.8948 64.1556C60.114 64.5342 59.6557 64.853 59.6756 65.2515C59.6956 65.7695 60.0741 66.4469 60.5523 66.2477C61.7876 65.7296 61.8474 64.1158 61.8673 62.8606C61.8673 62.3027 61.5485 61.7647 60.9308 61.685C61.947 59.852 63.242 58.1983 64.1785 56.3454C62.5049 55.2894 60.0741 54.353 59.9546 52.2012C59.8948 50.9858 60.1538 49.4716 61.0504 48.5351C62.2458 49.4716 63.4214 50.4877 65.0352 50.8065C66.8682 51.1651 68.6813 50.6869 69.9365 49.2723C71.1718 47.8976 71.3711 46.0247 70.7534 44.5304V44.5702Z"
            fill="currentColor" />
        <path
            d="M99.2052 5.14042C99.2849 4.94117 99.504 4.66224 99.3845 4.56262C99.3247 4.52277 99.0059 4.52277 98.8864 4.56262C98.7668 4.60246 98.727 4.66224 98.6871 4.74193C97.4917 6.51518 99.9822 7.59108 100.879 8.86622C101.018 9.06546 101.018 9.28463 101.038 9.52372C101.038 9.62334 101.118 9.76281 101.277 9.74289C101.576 9.70304 101.755 9.26471 101.736 9.12524C101.477 7.85009 100.002 7.23245 99.3048 6.17647C99.1056 5.87761 99.0856 5.49905 99.2052 5.14042Z"
            fill="currentColor" />
        <path
            d="M104.804 8.80645C104.445 8.78652 104.405 8.32827 104.465 7.96964C104.525 7.6907 104.824 7.39184 105.103 7.63092C105.302 7.83017 105.621 8.04933 105.561 8.30835C105.501 8.62713 105.103 8.82637 104.804 8.80645ZM102.652 5.06071C102.652 5.06071 102.492 5.16034 102.433 5.27988C102.014 6.09677 101.217 6.71442 101.417 7.65085C101.516 8.1888 102.214 8.58728 102.413 8.80645C102.492 8.88614 102.572 8.94592 102.552 9.06546C102.473 9.54364 101.735 10.1613 101.197 10.2609C100.6 10.3805 100.6 9.18501 100.121 9.40417C99.6433 9.60341 98.8463 10.7989 99.3444 11.0778C100.859 11.9146 101.397 12.1935 102.612 12.4326C104.624 12.8311 105.342 10.241 106.059 8.88614C106.198 8.62713 106.677 8.52751 106.617 8.30835C106.218 6.4554 104.306 5.85768 102.672 5.10056L102.652 5.06071Z"
            fill="currentColor" />
        <path
            d="M113.092 33.2135C112.753 33.6917 112.295 34.0702 111.737 34.2695C109.107 35.186 106.617 31.2609 105.501 28.7505C104.146 25.6822 102.791 22.7932 101.636 19.6651C102.393 19.1271 102.951 18.4896 103.748 17.9317C102.911 20.2628 104.584 22.5541 106.278 24.0683C108.489 26.0408 110.821 27.6746 112.813 29.9858C113.59 30.9023 113.789 32.1973 113.092 33.2135ZM100.6 17.2543C100.46 16.9953 100.34 16.7362 100.48 16.4972C100.54 16.3975 100.799 16.2381 100.839 16.3975C100.978 16.8956 101.237 17.3937 101.715 17.5133C101.476 18.0712 100.819 17.6328 100.6 17.2543ZM99.9619 14.3055C99.8623 14.0066 99.7029 13.6879 100.301 13.5085C100.42 14.1461 100.56 14.4848 100.958 14.8833C100.958 14.8833 100.739 15.0427 100.659 15.0228C100.34 14.9829 100.042 14.6044 99.9619 14.3055ZM99.0653 19.1471C98.7067 18.8083 98.4278 18.2106 98.8063 17.7125C98.8661 17.6328 99.0056 17.6528 99.0056 17.7125C99.0853 18.2505 99.4838 18.649 99.7428 19.0474C99.9221 19.3463 99.3243 19.3861 99.0653 19.1471ZM98.2285 16.4374C97.8898 16.1584 97.7504 15.7998 97.8699 15.4412C97.8898 15.3615 98.1688 15.1822 98.2285 15.3416C98.3879 15.76 98.5672 16.278 99.0454 16.3577C98.906 16.8159 98.5473 16.7163 98.2285 16.4374ZM97.0929 20.4023C96.794 20.1433 96.6944 19.6651 96.8139 19.2467C96.8139 19.2068 96.9334 19.1471 96.9733 19.167C97.3519 19.2666 97.3519 19.685 97.5113 19.9639C97.6109 20.1632 97.7304 20.1632 97.8699 20.3824C97.7304 20.8406 97.2921 20.6015 97.0729 20.4222L97.0929 20.4023ZM96.0568 17.8121C95.9373 17.593 95.7579 17.3738 95.738 17.1546C95.738 16.9753 96.0767 16.5769 96.1564 16.796C96.3557 17.2343 96.4553 17.6727 96.9932 17.9317C96.7741 18.4298 96.276 18.2704 96.0568 17.8121ZM94.9809 21.2789C94.9211 20.9602 94.941 20.3425 95.3594 20.5218C95.5188 20.6015 95.4392 20.9203 95.6185 21.1793C95.7779 21.3985 95.997 21.6575 95.997 21.777C95.9173 22.4943 95.0805 21.7173 94.9809 21.2789ZM94.164 18.3302C94.164 18.3302 94.4031 18.1309 94.443 18.2704C94.5227 18.4896 94.6223 18.6689 94.7418 18.8482C94.9012 19.1072 95.3993 19.1271 95.2399 19.5256C95.22 19.6053 95.0606 19.685 94.9809 19.6651C94.3832 19.5455 93.8652 18.9279 94.164 18.3302ZM93.2475 15.8795C93.1877 15.6603 93.4467 15.3814 93.7456 15.5009C93.646 15.6404 93.9448 16.1385 94.0245 16.2381C94.2437 16.5171 94.1839 16.5569 94.4828 16.6964C94.3433 17.055 93.9249 17.1148 93.7456 16.8359C93.5264 16.537 93.3471 16.2381 93.2475 15.8994V15.8795ZM95.1403 14.425C95.1403 14.425 95.22 14.1063 95.4392 14.1262C95.738 14.166 95.5985 14.5047 95.6384 14.6442C95.7181 14.9829 96.2162 15.1423 96.1564 15.5607C96.1564 15.6205 95.997 15.6803 95.8974 15.7002C95.8177 15.7002 95.7181 15.6803 95.6384 15.6006C95.2798 15.2619 95.0207 14.9032 95.1204 14.425H95.1403ZM97.0331 13.1898C97.0929 13.0901 97.3519 12.9307 97.3917 13.0702C97.4913 13.5683 97.85 13.9269 98.109 14.3055C98.2285 14.4649 97.6308 14.704 97.4116 14.425C97.1128 14.0664 96.794 13.648 97.053 13.1898H97.0331ZM102.831 14.3852C103.05 14.445 103.289 15.222 103.907 15.4611C103.847 15.6205 103.767 15.8197 103.628 15.8197C103.19 15.8197 102.911 15.5009 102.692 15.1423C102.433 14.7438 102.731 14.3453 102.851 14.3852H102.831ZM115.523 30.3245C113.749 26.0807 109.267 24.2476 106.218 20.9203C105.581 20.223 105.262 19.1471 105.8 18.3102C106.138 17.7723 106.696 17.4535 107.354 17.4934C108.529 17.5731 109.326 18.5095 109.705 19.5854C109.446 19.4858 109.227 19.6651 109.127 19.8245C108.808 20.223 108.848 20.8406 109.167 21.1992C109.685 21.7571 110.502 21.9165 111.1 21.3586C111.777 20.741 111.737 19.8046 111.518 19.0076C110.741 16.3378 107.712 14.5247 105.202 15.9791C105.72 14.4051 106.318 13.0104 107.055 11.4763C107.174 11.1973 107.673 11.1575 107.892 10.8985C108.39 10.4004 108.211 9.3444 107.513 9.00569C107.194 8.8463 106.796 8.86622 106.656 9.14516C105.919 10.6395 105.441 12.3928 103.807 13.0104C101.875 13.7277 100.281 11.8947 98.4078 11.5161C97.0928 11.2571 96.0966 12.0939 94.9211 12.4725C93.7456 9.70303 92.7892 6.83396 91.3746 4.16413C90.9562 3.36716 90.6773 2.55028 90.0796 1.81308C89.6612 1.29506 89.3025 0.856726 88.7646 0.478168C88.3063 0.159383 87.3699 -0.278948 86.9116 0.458244C87.5891 0.796954 88.4259 1.25521 88.3262 2.05217C88.3063 2.27134 88.1668 2.43073 87.8879 2.25141C87.4496 1.77324 87.1308 1.29506 86.4932 1.05597C86.1744 0.936423 85.7162 0.796954 85.4373 1.05597C85.1982 1.27513 85.0786 1.77324 85.3576 1.95255C85.7162 2.19164 86.2541 2.01232 86.6526 2.27134C87.1706 2.61005 87.6289 3.08823 87.609 3.66603C87.609 3.78557 87.3898 4.04458 87.2902 3.96489C87.0511 3.76565 86.8917 3.36716 86.5929 3.08823C86.1346 2.6499 85.5966 2.45066 85.1583 2.90891C84.461 3.6461 85.497 5.33965 86.3538 6.17646C86.8519 6.65464 87.4695 6.87381 88.1668 6.93358C88.4458 9.04554 88.9837 11.2173 89.4221 13.3093C88.6849 12.6717 88.1071 11.9943 87.4496 11.3966C86.7921 10.7989 86.1545 10.1613 85.497 9.56356C84.7798 8.90607 84.1223 8.22865 83.2058 7.75047C82.4088 7.33206 81.6716 6.99335 80.7949 7.19259C80.4961 7.27229 79.998 7.57115 80.1574 7.6907C80.7152 8.04933 81.5321 8.06925 82.0701 8.56736C82.3291 8.80645 82.3689 9.58349 82.0302 9.3444C81.1137 8.66698 79.0615 7.73054 78.9619 9.58349C78.9619 9.86242 79.4003 9.66318 79.8784 9.68311C80.3566 9.70303 80.8746 9.88235 81.1934 10.1214C81.4524 10.3207 81.7314 10.4402 81.7712 10.7789C81.7911 10.9981 81.5919 11.2372 81.4325 11.1575C80.9145 10.8985 80.516 10.4203 79.8983 10.4601C79.4002 10.5 79.0018 10.8188 79.1612 11.2173C79.7589 12.8311 81.8908 14.3254 83.5644 13.4687C85.7959 16.0588 87.8281 18.7685 90.2987 21.1594C90.8367 21.6774 91.8727 20.9203 92.6896 20.6812C92.5302 21.1793 92.5701 21.6575 92.7693 22.0958C93.905 24.7856 96.7541 26.1006 98.6071 28.2325C97.6906 27.8539 96.6944 27.7344 95.7181 27.814C94.7219 27.8738 94.164 28.7306 94.1242 29.6072C92.8092 27.4554 91.5938 25.2837 89.8803 23.3909C89.2427 22.6736 88.1071 21.4981 87.0312 22.5541C86.9714 22.6139 86.9515 22.7334 87.0312 22.7732C87.6887 23.0123 88.386 23.2913 88.6052 24.0085C88.6849 24.2676 88.5056 24.5863 88.3661 24.4668C87.7086 24.0085 87.2304 23.2514 86.2741 23.4307C85.7361 23.5503 85.4173 24.3473 85.9154 24.6461C86.2741 24.8653 86.812 24.8454 87.2105 25.0446C87.4695 25.1841 88.2864 25.6822 88.1668 26.3596C88.1668 26.4393 87.9875 26.6385 87.868 26.5588C87.5691 26.3596 86.6128 24.945 85.776 25.5825C84.9989 26.1803 86.0748 27.4355 86.7124 28.093C87.3898 28.7903 88.3262 29.3482 89.3224 28.9099C90.5378 31.5 91.813 34.0503 93.0283 36.6604C94.9809 35.4051 97.0729 33.1936 99.6033 34.1698C99.6232 36.1822 98.1488 37.9953 98.8661 40.0275C99.5037 41.9004 101.556 42.538 103.249 43.1755C102.572 45.407 101.436 47.4194 100.759 49.7106C100.42 50.8662 100.58 52.4004 101.895 52.8387C101.795 51.6234 101.516 51.1053 102.193 50.3084C102.413 50.0494 102.831 50.1888 102.751 50.5076C102.572 51.205 102.313 51.7628 102.632 52.5598C102.831 53.0579 103.269 53.4165 103.748 53.3767C104.066 53.3767 104.305 53.018 104.345 52.7192C104.425 52.2211 103.927 52.1215 103.807 51.6831C103.668 51.1651 103.648 50.7069 103.907 50.2087C104.046 49.9697 104.246 49.8103 104.485 49.7704C104.604 49.8103 104.644 49.8302 104.664 49.89C104.883 50.2685 104.425 50.5873 104.445 50.9858C104.485 51.5237 104.843 52.1812 105.322 51.982C106.557 51.464 106.617 49.8501 106.637 48.5949C106.637 48.037 106.318 47.4991 105.7 47.4194C106.716 45.6063 108.011 43.9327 108.948 42.0797C107.274 41.0237 104.843 40.0873 104.724 37.9355C104.664 36.7201 104.903 35.2059 105.82 34.2695C107.015 35.2059 108.211 36.222 109.804 36.5408C111.637 36.8994 113.451 36.4213 114.726 35.0066C115.941 33.6319 116.16 31.759 115.543 30.2647L115.523 30.3245Z"
            fill="currentColor" />
    </g>
    <defs>
        <clipPath id="clip0_927_18967">
            <rect width="158" height="68" fill="white" />
        </clipPath>
    </defs>
</svg>