<svg width="425" height="69" viewBox="0 0 425 69" fill="none" xmlns="http://www.w3.org/2000/svg">
    <g clip-path="url(#clip0_927_18968)">
        <path
            d="M337.016 0C348.632 22.2552 360.348 45.3473 371.585 67.7021C365.747 67.7021 359.909 67.7021 354.211 67.7021H353.773C347.058 53.9744 319.244 0 319.244 0C319.244 0 331.099 0.119545 337.016 0Z"
            fill="currentColor" />
        <path
            d="M311.832 51.4241L320.001 67.6822C318.865 67.6822 302.428 67.6822 302.428 67.6822C290.992 45.3273 278.957 22.6736 267.939 0.0199127H285.353C285.353 0.0199127 311.055 49.7106 311.852 51.4241"
            fill="currentColor" />
        <path
            d="M415.856 51.4241L424.025 67.6822C422.889 67.6822 406.452 67.6822 406.452 67.6822C395.035 45.3273 382.981 22.6736 371.963 0.0199127H389.357C389.357 0.0199127 415.059 49.7106 415.856 51.4241Z"
            fill="currentColor" />
        <path
            d="M321.436 19.4061C321.495 19.2068 321.735 18.9279 321.595 18.8283C321.535 18.7884 321.217 18.7884 321.097 18.8283C320.977 18.8681 320.938 18.9279 320.898 19.0076C319.702 20.7809 322.193 21.8568 323.069 23.1319C323.209 23.3311 323.209 23.5503 323.229 23.7894C323.229 23.889 323.309 24.0285 323.468 24.0086C323.767 23.9687 323.946 23.5503 323.926 23.3909C323.667 22.1357 322.193 21.4981 321.495 20.4421C321.296 20.1433 321.276 19.7647 321.396 19.4061H321.436Z"
            fill="currentColor" />
        <path
            d="M327.015 23.0721C326.656 23.0323 326.616 22.5939 326.676 22.2353C326.736 21.9564 327.035 21.6376 327.313 21.8966C327.513 22.0958 327.831 22.315 327.772 22.574C327.712 22.8928 327.313 23.092 327.015 23.0721ZM324.863 19.3264C324.863 19.3264 324.703 19.4459 324.644 19.5456C324.225 20.3624 323.428 20.9602 323.627 21.9165C323.727 22.4545 324.444 22.853 324.624 23.0721C324.703 23.1518 324.783 23.2116 324.763 23.3311C324.683 23.8093 323.946 24.427 323.408 24.5266C322.811 24.6461 322.811 23.4507 322.332 23.6698C321.854 23.8691 321.057 25.0645 321.555 25.3435C323.07 26.1803 323.588 26.4592 324.823 26.6983C326.835 27.0968 327.553 24.5067 328.27 23.1319C328.409 22.8729 328.887 22.7733 328.828 22.5541C328.429 20.7011 326.516 20.1034 324.883 19.3463L324.863 19.3264Z"
            fill="currentColor" />
        <path
            d="M335.303 47.4792C334.964 47.9573 334.506 48.3359 333.948 48.5351C331.338 49.4516 328.827 45.5266 327.712 43.0162C326.357 39.9478 325.002 37.0588 323.846 33.9308C324.584 33.3928 325.161 32.7552 325.958 32.1974C325.122 34.5285 326.795 36.8198 328.489 38.334C330.7 40.3065 333.031 41.9403 335.024 44.2514C335.801 45.168 336 46.463 335.303 47.4792ZM322.81 31.5199C322.671 31.2809 322.551 31.0019 322.691 30.7628C322.751 30.6632 323.01 30.5038 323.049 30.6632C323.189 31.1613 323.448 31.6594 323.926 31.779C323.687 32.3368 323.01 31.8985 322.81 31.5199ZM322.173 28.5712C322.073 28.2723 321.914 27.9535 322.511 27.7742C322.631 28.4118 322.79 28.7505 323.169 29.149C323.169 29.149 322.95 29.3084 322.87 29.2884C322.551 29.2486 322.272 28.87 322.173 28.5712ZM321.276 33.4127C320.918 33.074 320.639 32.4763 321.017 31.9782C321.077 31.8985 321.216 31.9184 321.236 31.9782C321.316 32.5161 321.715 32.9146 321.974 33.3131C322.153 33.5921 321.555 33.6518 321.296 33.4127H321.276ZM320.439 30.723C320.101 30.4241 319.961 30.0854 320.101 29.7268C320.121 29.6272 320.38 29.4678 320.439 29.6272C320.599 30.0655 320.758 30.5636 321.276 30.6433C321.137 31.1015 320.778 31.0019 320.439 30.723ZM319.324 34.668C319.025 34.4089 318.925 33.9308 319.045 33.5124C319.045 33.4725 319.164 33.4127 319.224 33.4127C319.603 33.5124 319.603 33.9308 319.762 34.2097C319.862 34.4089 319.981 34.4089 320.121 34.6281C319.981 35.0864 319.543 34.8473 319.344 34.668H319.324ZM318.288 32.0778C318.168 31.8587 317.989 31.6395 317.969 31.4203C317.969 31.241 318.288 30.8425 318.387 31.0617C318.586 31.5 318.686 31.9383 319.224 32.1974C319.005 32.7154 318.507 32.5361 318.288 32.0778ZM317.212 35.5446C317.152 35.2458 317.172 34.6082 317.59 34.7875C317.75 34.8672 317.67 35.186 317.849 35.445C318.009 35.6841 318.248 35.9232 318.228 36.0427C318.148 36.76 317.311 35.9829 317.212 35.5446ZM316.395 32.5958C316.395 32.5958 316.634 32.4165 316.674 32.5361C316.753 32.7552 316.853 32.9346 316.973 33.1139C317.132 33.3729 317.63 33.4127 317.471 33.7913C317.431 33.871 317.291 33.9507 317.212 33.9308C316.614 33.8112 316.096 33.1936 316.395 32.5958ZM315.478 30.1452C315.418 29.926 315.678 29.6471 315.976 29.7467C315.877 29.8862 316.176 30.3843 316.255 30.4839C316.474 30.7628 316.395 30.8027 316.714 30.9421C316.594 31.3008 316.156 31.3605 315.956 31.1015C315.737 30.8027 315.558 30.5038 315.478 30.1651V30.1452ZM317.371 28.6708C317.371 28.6708 317.451 28.3719 317.67 28.3719C317.969 28.4118 317.829 28.7306 317.869 28.89C317.949 29.2287 318.447 29.3881 318.387 29.8065C318.387 29.8662 318.228 29.926 318.128 29.9459C318.048 29.9459 317.929 29.926 317.869 29.8662C317.511 29.5275 317.252 29.1689 317.351 28.6907L317.371 28.6708ZM319.264 27.4355C319.324 27.3359 319.583 27.1765 319.603 27.316C319.702 27.8141 320.061 28.1727 320.32 28.5513C320.439 28.7106 319.842 28.9497 319.622 28.6708C319.324 28.3122 319.005 27.8938 319.264 27.4355ZM325.062 28.6309C325.281 28.6907 325.5 29.4678 326.138 29.7268C326.078 29.8662 325.998 30.0854 325.859 30.0854C325.42 30.0854 325.141 29.7666 324.902 29.408C324.643 29.0095 324.942 28.611 325.062 28.6509V28.6309ZM337.753 44.5702C335.98 40.3463 331.517 38.4934 328.449 35.1661C327.791 34.4687 327.493 33.3928 328.03 32.556C328.369 32.018 328.927 31.6793 329.585 31.7391C330.76 31.8188 331.557 32.7552 331.936 33.8311C331.677 33.7315 331.457 33.9108 331.338 34.0503C331.019 34.4488 331.059 35.0664 331.378 35.4251C331.896 35.9829 332.693 36.1423 333.31 35.5845C333.988 34.9668 333.948 34.0304 333.709 33.2334C332.932 30.5636 329.923 28.7505 327.393 30.205C327.911 28.6309 328.529 27.2363 329.266 25.7021C329.385 25.4232 329.863 25.3833 330.123 25.1243C330.621 24.6262 330.441 23.5702 329.744 23.2315C329.425 23.0721 329.027 23.092 328.887 23.371C328.15 24.8454 327.692 26.6186 326.038 27.2163C324.105 27.9336 322.511 26.1006 320.639 25.722C319.324 25.463 318.327 26.2998 317.152 26.6784C315.976 23.9089 315.02 21.0399 313.605 18.37C313.187 17.593 312.908 16.7562 312.31 16.019C311.892 15.501 311.533 15.0626 310.995 14.6841C310.537 14.3653 309.601 13.927 309.142 14.6641C309.8 15.0029 310.657 15.4611 310.557 16.278C310.537 16.4772 310.398 16.6566 310.119 16.4772C309.68 15.9991 309.362 15.5209 308.724 15.2818C308.405 15.1622 307.947 15.0029 307.648 15.2818C307.409 15.501 307.289 15.9991 307.568 16.1784C307.947 16.4175 308.465 16.2382 308.863 16.4972C309.382 16.8159 309.84 17.2941 309.82 17.8919C309.82 18.0114 309.581 18.2704 309.481 18.1907C309.242 18.0114 309.083 17.593 308.784 17.3141C308.326 16.8757 307.788 16.6765 307.349 17.1148C306.652 17.852 307.688 19.5456 308.545 20.3824C309.043 20.8605 309.66 21.0797 310.358 21.1395C310.617 23.2514 311.175 25.4232 311.613 27.5152C310.876 26.8776 310.298 26.2002 309.641 25.6025C308.983 25.0048 308.365 24.3672 307.688 23.7695C306.951 23.112 306.313 22.4346 305.397 21.9564C304.6 21.538 303.863 21.1993 302.986 21.3985C302.687 21.4583 302.189 21.7771 302.348 21.8966C302.906 22.2752 303.723 22.2752 304.261 22.7733C304.52 23.0123 304.56 23.7894 304.221 23.5503C303.305 22.8729 301.233 21.9364 301.153 23.7894C301.153 24.0683 301.591 23.8691 302.069 23.889C302.548 23.9089 303.066 24.0883 303.384 24.3273C303.643 24.5266 303.922 24.6461 303.962 24.9649C303.982 25.204 303.783 25.4232 303.623 25.3634C303.105 25.0845 302.687 24.6063 302.089 24.666C301.591 24.7059 301.193 25.0048 301.352 25.4232C301.95 27.037 304.082 28.5313 305.755 27.6746C307.987 30.2448 310.019 32.9744 312.49 35.3653C313.028 35.8833 314.064 35.1262 314.881 34.8871C314.721 35.3852 314.761 35.8435 314.96 36.3017C316.096 38.9915 318.945 40.3065 320.798 42.4384C319.881 42.0598 318.885 41.9602 317.909 42.02C316.913 42.0996 316.335 42.9365 316.315 43.833C315 41.6812 313.785 39.5095 312.071 37.6167C311.434 36.8995 310.298 35.7239 309.222 36.7998C309.162 36.8596 309.142 36.9791 309.222 37.019C309.88 37.2581 310.577 37.537 310.796 38.2543C310.876 38.5133 310.696 38.8321 310.557 38.7125C309.9 38.2543 309.421 37.4972 308.465 37.6765C307.927 37.796 307.608 38.593 308.106 38.8919C308.485 39.111 309.003 39.0911 309.421 39.2903C309.68 39.4298 310.517 39.9279 310.378 40.6053C310.378 40.685 310.198 40.8843 310.079 40.8046C309.78 40.6053 308.844 39.1907 307.987 39.8283C307.21 40.426 308.286 41.6812 308.923 42.3387C309.581 43.0361 310.537 43.594 311.533 43.1755C312.749 45.7657 314.024 48.316 315.239 50.926C317.192 49.6708 319.284 47.4592 321.814 48.4355C321.854 50.4478 320.38 52.2609 321.077 54.2932C321.715 56.1461 323.767 56.8036 325.46 57.4412C324.783 59.6727 323.647 61.685 322.97 63.9763C322.631 65.1319 322.79 66.6661 324.125 67.1044C324.026 65.889 323.747 65.371 324.424 64.574C324.643 64.315 325.062 64.4545 324.982 64.7733C324.803 65.4706 324.544 66.0285 324.863 66.8255C325.062 67.3036 325.5 67.6822 325.978 67.6424C326.297 67.6424 326.536 67.2837 326.576 66.9849C326.656 66.4868 326.158 66.4071 326.038 65.9488C325.919 65.4308 325.879 64.9725 326.138 64.4744C326.257 64.2353 326.476 64.0759 326.715 64.0361C326.835 64.0759 326.875 64.0959 326.895 64.1556C327.114 64.5342 326.656 64.853 326.676 65.2515C326.696 65.7695 327.074 66.4469 327.552 66.2477C328.788 65.7296 328.847 64.1158 328.867 62.8606C328.867 62.3027 328.548 61.7647 327.931 61.685C328.947 59.852 330.242 58.1983 331.178 56.3454C329.505 55.2894 327.074 54.353 326.955 52.2012C326.895 50.9858 327.154 49.4716 328.05 48.5351C329.246 49.4716 330.421 50.4877 332.035 50.8065C333.868 51.1651 335.681 50.6869 336.937 49.2723C338.172 47.8976 338.371 46.0247 337.753 44.5304V44.5702Z"
            fill="currentColor" />
        <path
            d="M366.205 5.14042C366.285 4.94117 366.504 4.66224 366.384 4.56262C366.325 4.52277 366.006 4.52277 365.886 4.56262C365.767 4.60246 365.727 4.66224 365.687 4.74193C364.492 6.51518 366.982 7.59108 367.879 8.86622C368.018 9.06546 368.018 9.28463 368.038 9.52372C368.038 9.62334 368.118 9.76281 368.277 9.74289C368.576 9.70304 368.755 9.26471 368.736 9.12524C368.477 7.85009 367.002 7.23245 366.305 6.17647C366.106 5.87761 366.086 5.49905 366.205 5.14042Z"
            fill="currentColor" />
        <path
            d="M371.804 8.80645C371.445 8.78652 371.405 8.32827 371.465 7.96964C371.525 7.6907 371.824 7.39184 372.103 7.63092C372.302 7.83017 372.621 8.04933 372.561 8.30835C372.501 8.62713 372.103 8.82637 371.804 8.80645ZM369.652 5.06071C369.652 5.06071 369.492 5.16034 369.433 5.27988C369.014 6.09677 368.217 6.71442 368.417 7.65085C368.516 8.1888 369.214 8.58728 369.413 8.80645C369.492 8.88614 369.572 8.94592 369.552 9.06546C369.473 9.54364 368.735 10.1613 368.197 10.2609C367.6 10.3805 367.6 9.18501 367.121 9.40417C366.643 9.60341 365.846 10.7989 366.344 11.0778C367.859 11.9146 368.397 12.1935 369.612 12.4326C371.624 12.8311 372.342 10.241 373.059 8.88614C373.198 8.62713 373.677 8.52751 373.617 8.30835C373.218 6.4554 371.306 5.85768 369.672 5.10056L369.652 5.06071Z"
            fill="currentColor" />
        <path
            d="M380.092 33.2135C379.753 33.6917 379.295 34.0702 378.737 34.2695C376.107 35.186 373.617 31.2609 372.501 28.7505C371.146 25.6822 369.791 22.7932 368.636 19.6651C369.393 19.1271 369.951 18.4896 370.748 17.9317C369.911 20.2628 371.584 22.5541 373.278 24.0683C375.489 26.0408 377.821 27.6746 379.813 29.9858C380.59 30.9023 380.789 32.1973 380.092 33.2135ZM367.6 17.2543C367.46 16.9953 367.34 16.7362 367.48 16.4972C367.54 16.3975 367.799 16.2381 367.839 16.3975C367.978 16.8956 368.237 17.3937 368.715 17.5133C368.476 18.0712 367.819 17.6328 367.6 17.2543ZM366.962 14.3055C366.862 14.0066 366.703 13.6879 367.301 13.5085C367.42 14.1461 367.56 14.4848 367.958 14.8833C367.958 14.8833 367.739 15.0427 367.659 15.0228C367.34 14.9829 367.042 14.6044 366.962 14.3055ZM366.065 19.1471C365.707 18.8083 365.428 18.2106 365.806 17.7125C365.866 17.6328 366.006 17.6528 366.006 17.7125C366.085 18.2505 366.484 18.649 366.743 19.0474C366.922 19.3463 366.324 19.3861 366.065 19.1471ZM365.229 16.4374C364.89 16.1584 364.75 15.7998 364.87 15.4412C364.89 15.3615 365.169 15.1822 365.229 15.3416C365.388 15.76 365.567 16.278 366.045 16.3577C365.906 16.8159 365.547 16.7163 365.229 16.4374ZM364.093 20.4023C363.794 20.1433 363.694 19.6651 363.814 19.2467C363.814 19.2068 363.933 19.1471 363.973 19.167C364.352 19.2666 364.352 19.685 364.511 19.9639C364.611 20.1632 364.73 20.1632 364.87 20.3824C364.73 20.8406 364.292 20.6015 364.073 20.4222L364.093 20.4023ZM363.057 17.8121C362.937 17.593 362.758 17.3738 362.738 17.1546C362.738 16.9753 363.077 16.5769 363.156 16.796C363.356 17.2343 363.455 17.6727 363.993 17.9317C363.774 18.4298 363.276 18.2704 363.057 17.8121ZM361.981 21.2789C361.921 20.9602 361.941 20.3425 362.359 20.5218C362.519 20.6015 362.439 20.9203 362.618 21.1793C362.778 21.3985 362.997 21.6575 362.997 21.777C362.917 22.4943 362.081 21.7173 361.981 21.2789ZM361.164 18.3302C361.164 18.3302 361.403 18.1309 361.443 18.2704C361.523 18.4896 361.622 18.6689 361.742 18.8482C361.901 19.1072 362.399 19.1271 362.24 19.5256C362.22 19.6053 362.061 19.685 361.981 19.6651C361.383 19.5455 360.865 18.9279 361.164 18.3302ZM360.247 15.8795C360.188 15.6603 360.447 15.3814 360.746 15.5009C360.646 15.6404 360.945 16.1385 361.025 16.2381C361.244 16.5171 361.184 16.5569 361.483 16.6964C361.343 17.055 360.925 17.1148 360.746 16.8359C360.526 16.537 360.347 16.2381 360.247 15.8994V15.8795ZM362.14 14.425C362.14 14.425 362.22 14.1063 362.439 14.1262C362.738 14.166 362.599 14.5047 362.638 14.6442C362.718 14.9829 363.216 15.1423 363.156 15.5607C363.156 15.6205 362.997 15.6803 362.897 15.7002C362.818 15.7002 362.718 15.6803 362.638 15.6006C362.28 15.2619 362.021 14.9032 362.12 14.425H362.14ZM364.033 13.1898C364.093 13.0901 364.352 12.9307 364.392 13.0702C364.491 13.5683 364.85 13.9269 365.109 14.3055C365.229 14.4649 364.631 14.704 364.412 14.425C364.113 14.0664 363.794 13.648 364.053 13.1898H364.033ZM369.831 14.3852C370.05 14.445 370.289 15.222 370.907 15.4611C370.847 15.6205 370.767 15.8197 370.628 15.8197C370.19 15.8197 369.911 15.5009 369.692 15.1423C369.433 14.7438 369.731 14.3453 369.851 14.3852H369.831ZM382.523 30.3245C380.749 26.0807 376.267 24.2476 373.218 20.9203C372.581 20.223 372.262 19.1471 372.8 18.3102C373.138 17.7723 373.696 17.4535 374.354 17.4934C375.529 17.5731 376.326 18.5095 376.705 19.5854C376.446 19.4858 376.227 19.6651 376.127 19.8245C375.808 20.223 375.848 20.8406 376.167 21.1992C376.685 21.7571 377.502 21.9165 378.1 21.3586C378.777 20.741 378.737 19.8046 378.518 19.0076C377.741 16.3378 374.712 14.5247 372.202 15.9791C372.72 14.4051 373.318 13.0104 374.055 11.4763C374.174 11.1973 374.673 11.1575 374.892 10.8985C375.39 10.4004 375.211 9.3444 374.513 9.00569C374.194 8.8463 373.796 8.86622 373.656 9.14516C372.919 10.6395 372.441 12.3928 370.807 13.0104C368.875 13.7277 367.281 11.8947 365.408 11.5161C364.093 11.2571 363.097 12.0939 361.921 12.4725C360.746 9.70303 359.789 6.83396 358.375 4.16413C357.956 3.36716 357.677 2.55028 357.08 1.81308C356.661 1.29506 356.303 0.856726 355.765 0.478168C355.306 0.159383 354.37 -0.278948 353.912 0.458244C354.589 0.796954 355.426 1.25521 355.326 2.05217C355.306 2.27134 355.167 2.43073 354.888 2.25141C354.45 1.77324 354.131 1.29506 353.493 1.05597C353.174 0.936423 352.716 0.796954 352.437 1.05597C352.198 1.27513 352.079 1.77324 352.358 1.95255C352.716 2.19164 353.254 2.01232 353.653 2.27134C354.171 2.61005 354.629 3.08823 354.609 3.66603C354.609 3.78557 354.39 4.04458 354.29 3.96489C354.051 3.76565 353.892 3.36716 353.593 3.08823C353.135 2.6499 352.597 2.45066 352.158 2.90891C351.461 3.6461 352.497 5.33965 353.354 6.17646C353.852 6.65464 354.469 6.87381 355.167 6.93358C355.446 9.04554 355.984 11.2173 356.422 13.3093C355.685 12.6717 355.107 11.9943 354.45 11.3966C353.792 10.7989 353.155 10.1613 352.497 9.56356C351.78 8.90607 351.122 8.22865 350.206 7.75047C349.409 7.33206 348.672 6.99335 347.795 7.19259C347.496 7.27229 346.998 7.57115 347.157 7.6907C347.715 8.04933 348.532 8.06925 349.07 8.56736C349.329 8.80645 349.369 9.58349 349.03 9.3444C348.114 8.66698 346.062 7.73054 345.962 9.58349C345.962 9.86242 346.4 9.66318 346.878 9.68311C347.357 9.70303 347.875 9.88235 348.193 10.1214C348.452 10.3207 348.731 10.4402 348.771 10.7789C348.791 10.9981 348.592 11.2372 348.433 11.1575C347.914 10.8985 347.516 10.4203 346.898 10.4601C346.4 10.5 346.002 10.8188 346.161 11.2173C346.759 12.8311 348.891 14.3254 350.564 13.4687C352.796 16.0588 354.828 18.7685 357.299 21.1594C357.837 21.6774 358.873 20.9203 359.69 20.6812C359.53 21.1793 359.57 21.6575 359.769 22.0958C360.905 24.7856 363.754 26.1006 365.607 28.2325C364.691 27.8539 363.694 27.7344 362.718 27.814C361.722 27.8738 361.164 28.7306 361.124 29.6072C359.809 27.4554 358.594 25.2837 356.88 23.3909C356.243 22.6736 355.107 21.4981 354.031 22.5541C353.971 22.6139 353.951 22.7334 354.031 22.7732C354.689 23.0123 355.386 23.2913 355.605 24.0085C355.685 24.2676 355.506 24.5863 355.366 24.4668C354.709 24.0085 354.23 23.2514 353.274 23.4307C352.736 23.5503 352.417 24.3473 352.915 24.6461C353.274 24.8653 353.812 24.8454 354.21 25.0446C354.47 25.1841 355.286 25.6822 355.167 26.3596C355.167 26.4393 354.988 26.6385 354.868 26.5588C354.569 26.3596 353.613 24.945 352.776 25.5825C351.999 26.1803 353.075 27.4355 353.712 28.093C354.39 28.7903 355.326 29.3482 356.322 28.9099C357.538 31.5 358.813 34.0503 360.028 36.6604C361.981 35.4051 364.073 33.1936 366.603 34.1698C366.623 36.1822 365.149 37.9953 365.866 40.0275C366.504 41.9004 368.556 42.538 370.249 43.1755C369.572 45.407 368.436 47.4194 367.759 49.7106C367.42 50.8662 367.58 52.4004 368.895 52.8387C368.795 51.6234 368.516 51.1053 369.193 50.3084C369.413 50.0494 369.831 50.1888 369.751 50.5076C369.572 51.205 369.313 51.7628 369.632 52.5598C369.831 53.0579 370.269 53.4165 370.748 53.3767C371.066 53.3767 371.305 53.018 371.345 52.7192C371.425 52.2211 370.927 52.1215 370.807 51.6831C370.668 51.1651 370.648 50.7069 370.907 50.2087C371.046 49.9697 371.246 49.8103 371.485 49.7704C371.604 49.8103 371.644 49.8302 371.664 49.89C371.883 50.2685 371.425 50.5873 371.445 50.9858C371.485 51.5237 371.843 52.1812 372.322 51.982C373.557 51.464 373.617 49.8501 373.637 48.5949C373.637 48.037 373.318 47.4991 372.7 47.4194C373.716 45.6063 375.011 43.9327 375.948 42.0797C374.274 41.0237 371.843 40.0873 371.724 37.9355C371.664 36.7201 371.903 35.2059 372.82 34.2695C374.015 35.2059 375.211 36.222 376.804 36.5408C378.637 36.8994 380.451 36.4213 381.726 35.0066C382.941 33.6319 383.16 31.759 382.543 30.2647L382.523 30.3245Z"
            fill="currentColor" />
        <path fill-rule="evenodd" clip-rule="evenodd"
            d="M18.1709 45.8055L15.4413 46.6623C14.4849 43.4346 13.15 40.7847 9.44412 40.7847C6.81414 40.7847 4.3834 42.8966 4.3834 45.7059C4.3834 52.8786 18.41 50.0693 18.41 60.131C18.41 65.1718 14.6642 68.2799 9.82268 68.2799C4.68226 68.2799 1.01623 65.1319 0.0200195 60.131L2.94886 59.4336C3.64621 62.8406 6.23634 65.7894 9.86253 65.7894C12.8312 65.7894 15.3815 63.538 15.3815 60.4697C15.3815 52.4801 1.35493 55.8074 1.35493 46.1442C1.35493 41.4023 5.06082 38.2941 9.64336 38.2941C14.2259 38.2941 17.1149 41.6613 18.1908 45.8055H18.1709ZM27.7145 40.6253V47.26H32.3369V49.7107H27.7145V62.5617C27.7145 64.5541 27.6747 65.8492 30.0457 65.8492C30.8625 65.8492 31.6396 65.7695 32.3369 65.5902V67.7021C31.4204 68.0408 30.4441 68.2999 29.4479 68.2999C24.5665 68.2999 24.8255 65.0124 24.8255 61.2666V49.7107H21.7174V47.26H24.8255V40.6253H27.7145ZM50.6671 67.6822H47.5191L47.2202 65.0921C45.5466 66.7258 43.7136 68.2799 41.3028 68.2799C38.1548 68.2799 35.6443 65.6499 35.6443 62.4222C35.6443 56.5845 41.781 55.3093 46.3037 54.094L47.2202 53.835V52.6993C47.2202 50.3682 45.6263 49.1129 43.335 49.1129C41.0438 49.1129 39.5295 50.5873 38.3341 52.3406L36.3018 50.8264C37.9954 48.3757 40.2269 46.6822 43.335 46.6822C46.1045 46.6822 50.1092 48.3757 50.1092 53.038V63.1794C50.1491 64.6936 50.0694 66.2477 50.6671 67.7021V67.6822ZM47.2202 56.2059L46.0646 56.5446C43.335 57.3615 38.3341 58.4773 38.3341 62.1234C38.3341 63.8169 39.669 65.5304 41.4024 65.5304C43.6937 65.5304 45.8056 63.9365 47.2202 62.2031V56.2059ZM68.1007 61.9441V52.4602C67.2041 50.6869 65.5504 49.1727 63.3189 49.1727C59.2942 49.1727 58.4375 54.7315 58.4375 57.7998C58.4375 63.797 61.2867 65.7496 63.2791 65.7496C65.2715 65.7496 67.2838 63.6775 68.0808 61.9441H68.1007ZM68.1007 49.352V38.8719H70.9897V67.6623H68.1007V65.3312C66.7259 67.0247 65.132 68.26 62.8806 68.26C60.1111 68.26 55.409 65.7097 55.409 57.8596C55.409 50.0095 59.4736 46.6423 63.0001 46.6423C64.9527 46.6423 66.7658 47.9374 68.1007 49.352ZM81.6093 40.6253V47.26H86.2316V49.7107H81.6093V62.5617C81.6093 64.5541 81.5694 65.8492 83.9404 65.8492C84.7573 65.8492 85.5343 65.7695 86.2316 65.5902V67.7021C85.3151 68.0408 84.3389 68.2999 83.3427 68.2999C78.4613 68.2999 78.7203 65.0124 78.7203 61.2666V49.7107H75.6121V47.26H78.7203V40.6253H81.6093ZM127.614 38.8919L121.019 67.6822H118.05L113.169 44.1518H113.089L107.949 67.6822H104.98L98.9432 38.8919H101.832L106.574 62.1433H106.654L111.834 38.8919H114.683L119.605 62.1433H119.684L124.745 38.8919H127.594H127.614ZM134.448 47.26V67.6822H131.559V47.26H134.448ZM134.448 38.8919V42.0797H131.559V38.8919H134.448ZM143.653 52.1414V67.6822H140.764V47.26H143.653V49.372C145.346 47.9972 146.94 46.6623 149.272 46.6623C152.161 46.6623 154.492 48.2562 154.492 53.5759V67.6822H151.603V54.3131C151.603 52.1613 151.981 49.0133 148.893 49.0133C147.12 49.0133 144.789 50.7467 143.633 52.1215L143.653 52.1414ZM164.454 40.6253V47.26H169.076V49.7107H164.454V62.5617C164.454 64.5541 164.414 65.8492 166.785 65.8492C167.602 65.8492 168.379 65.7695 169.076 65.5902V67.7021C168.16 68.0408 167.183 68.2999 166.187 68.2999C161.306 68.2999 161.565 65.0124 161.565 61.2666V49.7107H158.457V47.26H161.565V40.6253H164.454ZM187.327 57.9393H174.994C174.994 63.797 177.464 65.8293 180.433 65.8293C182.585 65.8293 184.398 64.0959 185.434 62.3226L187.506 63.6974C186.39 66.3274 183.661 68.2799 180.134 68.2799C175.591 68.2799 171.965 65.1319 171.965 57.4811C171.965 49.8302 175.591 46.6822 180.134 46.6822C186.012 46.6822 187.725 52.9782 187.307 57.9792L187.327 57.9393ZM175.073 55.4887H184.298C184.378 52.8587 182.963 49.093 179.935 49.093C176.667 49.093 175.113 52.5997 175.093 55.4887H175.073ZM195.655 47.2401V51.6433H195.735C196.89 49.1926 198.365 46.9412 201.393 46.9412H202.509V49.5712C198.743 49.0532 196.771 53.1177 195.655 56.0864V67.6623H192.766V47.2401H195.655ZM210.737 40.6053V47.2401H215.36V49.6907H210.737V62.5418C210.737 64.5342 210.698 65.8293 213.069 65.8293C213.885 65.8293 214.662 65.7496 215.36 65.5703V67.6822C214.443 68.0209 213.467 68.2799 212.471 68.2799C207.589 68.2799 207.848 64.9925 207.848 61.2467V49.6907H204.74V47.2401H207.848V40.6053H210.737ZM222.772 38.8719V49.352C224.485 47.9773 226.059 46.6423 228.39 46.6423C231.279 46.6423 233.61 48.2363 233.61 53.556V67.6623H230.721V54.2932C230.721 52.1414 231.1 48.9934 228.012 48.9934C226.238 48.9934 223.907 50.7268 222.752 52.1016V67.6424H219.863V38.852H222.752L222.772 38.8719ZM249.968 62.7809V47.2401H252.857V67.6623H249.968V65.5503C248.255 66.9251 246.68 68.26 244.349 68.26C241.46 68.26 239.129 66.6661 239.129 61.3463V47.2401H242.018V60.6091C242.018 62.761 242.397 65.909 244.728 65.909C246.501 65.909 248.832 64.1756 249.988 62.8008L249.968 62.7809ZM261.883 47.2401V51.6433H261.962C263.118 49.1926 264.592 46.9412 267.621 46.9412H268.737V49.5712C264.951 49.0532 262.998 53.1177 261.883 56.0864V67.6623H258.994V47.2401H261.883Z"
            fill="#1D1D1B" />
    </g>
    <defs>
        <clipPath id="clip0_927_18968">
            <rect width="424.025" height="68.26" fill="white" />
        </clipPath>
    </defs>
</svg>